<svg width="64" height="65" viewBox="0 0 64 65" fill="none" xmlns="http://www.w3.org/2000/svg">
<g clip-path="url(#clip0_49_81)">
<path d="M15.3996 21.8083C13.4926 21.8083 11.9458 23.355 11.9458 25.2621C11.9458 27.1701 13.4926 28.7159 15.3996 28.7159C17.3067 28.7159 18.8533 27.1701 18.8533 25.2621C18.8534 23.355 17.3067 21.8083 15.3996 21.8083Z" fill="#0B32FF"/>
<path d="M31.9996 21.8083C30.0916 21.8083 28.5459 23.355 28.5459 25.2621C28.5459 27.1701 30.0916 28.7159 31.9996 28.7159C33.9068 28.7159 35.4534 27.1701 35.4534 25.2621C35.4535 23.355 33.9068 21.8083 31.9996 21.8083Z" fill="#0B32FF"/>
<path d="M48.5997 28.7159C50.5069 28.7159 52.0535 27.1701 52.0535 25.2621C52.0535 23.3549 50.5069 21.8083 48.5997 21.8083C46.6926 21.8083 45.146 23.355 45.146 25.2621C45.1459 27.1702 46.6926 28.7159 48.5997 28.7159Z" fill="#0B32FF"/>
<path d="M15.3996 35.5463C13.4926 35.5463 11.9458 37.093 11.9458 39C11.9458 40.9071 13.4926 42.4538 15.3996 42.4538C17.3067 42.4538 18.8533 40.9071 18.8533 39C18.8534 37.093 17.3067 35.5463 15.3996 35.5463Z" fill="#0B32FF"/>
<path d="M31.9996 35.5463C30.0916 35.5463 28.5459 37.093 28.5459 39C28.5459 40.9071 30.0916 42.4538 31.9996 42.4538C33.9068 42.4538 35.4534 40.9071 35.4534 39C35.4535 37.093 33.9068 35.5463 31.9996 35.5463Z" fill="#0B32FF"/>
<path d="M48.5997 42.4539C50.5069 42.4539 52.0535 40.9073 52.0535 39.0001C52.0535 37.093 50.5069 35.5464 48.5997 35.5464C46.6926 35.5464 45.146 37.0931 45.146 39.0001C45.1459 40.9073 46.6926 42.4539 48.5997 42.4539Z" fill="#0B32FF"/>
<path d="M15.3996 49.2854C13.4926 49.2854 11.9458 50.8322 11.9458 52.7392C11.9458 54.6463 13.4926 56.1929 15.3996 56.1929C17.3067 56.1929 18.8533 54.6462 18.8533 52.7392C18.8534 50.832 17.3067 49.2854 15.3996 49.2854Z" fill="#0B32FF"/>
<path d="M31.9996 49.2854C30.0916 49.2854 28.5459 50.8322 28.5459 52.7392C28.5459 54.6463 30.0916 56.1929 31.9996 56.1929C33.9068 56.1929 35.4534 54.6462 35.4534 52.7392C35.4535 50.832 33.9068 49.2854 31.9996 49.2854Z" fill="#0B32FF"/>
<path d="M48.5997 56.1929C50.5069 56.1929 52.0535 54.6462 52.0535 52.7392C52.0535 50.8322 50.5069 49.2854 48.5997 49.2854C46.6926 49.2854 45.146 50.8322 45.146 52.7392C45.1459 54.6463 46.6926 56.1929 48.5997 56.1929Z" fill="#0B32FF"/>
<path d="M14.8272 11.3496C16.0126 11.3496 16.9733 10.3889 16.9733 9.20362V2.33362C16.9732 1.14825 16.0124 0.1875 14.8272 0.1875C13.6399 0.1875 12.6802 1.14825 12.6802 2.33362V9.20362C12.6802 10.3889 13.6399 11.3496 14.8272 11.3496Z" fill="#0B32FF"/>
<path d="M31.9995 11.3496C33.1849 11.3496 34.1457 10.3889 34.1457 9.20362V2.33362C34.1457 1.14825 33.1849 0.1875 31.9995 0.1875C30.8133 0.1875 29.8525 1.14825 29.8525 2.33362V9.20362C29.8525 10.3889 30.8133 11.3496 31.9995 11.3496Z" fill="#0B32FF"/>
<path d="M53.0356 5.79993V9.20355C53.0356 11.3333 51.3029 13.0669 49.1713 13.0669C47.0415 13.0669 45.308 11.3332 45.308 9.20355V5.79993H35.8631V9.20355C35.8631 11.3333 34.1295 13.0669 31.9999 13.0669C29.8683 13.0669 28.1356 11.3332 28.1356 9.20355V5.79993H18.6908V9.20355C18.6908 11.3333 16.957 13.0669 14.8274 13.0669C12.6959 13.0669 10.9631 11.3332 10.9631 9.20355V5.79993H2.23389V64.1876H61.7664V5.79993H53.0356ZM58.3309 32.1322V45.8702V47.0139V60.7529H41.1584H40.0136H23.9859H22.841H5.66851V47.0141V45.8703V32.1322V16.1034H22.841H23.9859H40.0136H41.1584H58.3309V32.1322Z" fill="#0B32FF"/>
<path d="M49.1709 11.3496C50.3572 11.3496 51.3179 10.3889 51.3179 9.20362V2.33362C51.318 1.14825 50.3573 0.1875 49.1709 0.1875C47.9857 0.1875 47.0249 1.14825 47.0249 2.33362V9.20362C47.0249 10.3889 47.9857 11.3496 49.1709 11.3496Z" fill="#0B32FF"/>
</g>
<defs>
<clipPath id="clip0_49_81">
<rect width="64" height="64" fill="white" transform="translate(0 0.1875)"/>
</clipPath>
</defs>
</svg>
