<svg width="210" height="210" viewBox="0 0 210 210" fill="none" xmlns="http://www.w3.org/2000/svg">
<path d="M203.07 145.311C193.59 136.754 190.071 123.285 194.325 111.113C195.346 108.193 193.665 105.014 190.672 104.217C171.171 99.03 161.349 77.1339 170.382 59.1338C171.965 55.9794 170.088 52.1831 166.627 51.5237C148.003 47.9641 136.492 28.8503 142.236 10.6184C143.137 7.75749 141.492 4.70983 138.6 3.89806C129.38 1.31106 119.818 0 110.174 0C52.2771 0 5.17383 47.1025 5.17383 105C5.17383 162.897 52.2763 209.999 110.173 209.999C150.787 209.999 186.816 186.787 204.27 151.624C205.331 149.489 204.84 146.908 203.07 145.311ZM110.174 199.361C58.1427 199.361 15.8133 157.03 15.8133 105C15.8133 52.9703 58.1434 10.6387 110.174 10.6387C117.124 10.6387 124.026 11.3957 130.757 12.8929C127.16 33.5615 139.147 53.4682 158.432 60.2945C151.601 81.2679 162.119 104.349 182.831 112.787C179.949 126.319 183.877 140.247 192.985 150.262C176.791 179.839 145.521 199.361 110.174 199.361Z" fill="#5B5F82"/>
<path d="M53.6418 108.843C44.4651 108.843 36.999 116.308 36.999 125.486C36.999 134.662 44.4644 142.129 53.6418 142.129C62.8178 142.129 70.2845 134.664 70.2845 125.486C70.2838 116.308 62.8185 108.843 53.6418 108.843ZM53.6418 131.49C50.3308 131.49 47.6377 128.797 47.6377 125.486C47.6377 122.175 50.3308 119.481 53.6418 119.481C56.9521 119.481 59.6458 122.175 59.6458 125.486C59.6458 128.797 56.9521 131.49 53.6418 131.49Z" fill="#5B5F82"/>
<path d="M121.642 63.6603C121.642 53.1971 113.131 44.6854 102.668 44.6854C92.2057 44.6854 83.6934 53.1971 83.6934 63.6603C83.6934 74.122 92.205 82.6344 102.668 82.6344C113.131 82.6337 121.642 74.122 121.642 63.6603ZM94.3328 63.6603C94.3328 59.0642 98.0721 55.3241 102.669 55.3241C107.266 55.3241 111.004 59.0635 111.004 63.6603C111.004 68.257 107.265 71.9957 102.669 71.9957C98.0728 71.9957 94.3328 68.2556 94.3328 63.6603Z" fill="#5B5F82"/>
<path d="M119.124 131.49C105.336 131.49 94.1182 142.707 94.1182 156.496C94.1182 170.284 105.336 181.502 119.124 181.502C132.912 181.502 144.13 170.285 144.13 156.496C144.129 142.707 132.912 131.49 119.124 131.49ZM119.124 170.862C111.202 170.862 104.758 164.417 104.758 156.495C104.758 148.572 111.203 142.127 119.124 142.127C127.046 142.127 133.491 148.572 133.491 156.495C133.491 164.417 127.046 170.862 119.124 170.862Z" fill="#5B5F82"/>
</svg>
