<svg width="64" height="65" viewBox="0 0 64 65" fill="none" xmlns="http://www.w3.org/2000/svg">
<g clip-path="url(#clip0_49_82)">
<path d="M50.7743 48.1855C49.7255 50.1523 48.2841 51.7929 46.4598 53.1366C44.6278 54.4765 42.4363 55.4745 39.8895 56.1328C38.7762 56.414 37.6102 56.6094 36.4266 56.7695V64.1875H27.5731V56.918C25.0516 56.7051 22.6415 56.3125 20.372 55.6875C16.9071 54.7383 12.37 50.9062 12.37 50.9062C11.9813 50.6796 11.7235 50.2812 11.6688 49.8399C11.6122 49.3945 11.7646 48.9454 12.083 48.6289L16.5185 44.1914C16.997 43.7188 17.7392 43.6289 18.3133 43.9804C18.3133 43.9804 21.6337 46.8633 24.1493 47.5508C26.665 48.2344 29.1611 48.5781 31.6513 48.5781C34.792 48.5781 37.3877 48.0234 39.4462 46.914C41.5087 45.7968 42.5361 44.0703 42.5361 41.7109C42.5361 40.0116 42.0322 38.6717 41.0146 37.6874C40.001 36.7108 38.2861 36.0956 35.8661 35.826L27.9207 35.1424C23.2156 34.6834 19.5867 33.3709 17.0378 31.2205C14.4812 29.0623 13.2117 25.7889 13.2117 21.4139C13.2117 18.992 13.7 16.8358 14.6825 14.9392C15.6668 13.0428 17.0028 11.4412 18.704 10.1365C20.4032 8.82788 22.3837 7.84737 24.6376 7.19513C25.581 6.92163 26.5692 6.742 27.5731 6.57788V0.1875H36.4266V6.44925C38.493 6.65238 40.4598 6.98438 42.2898 7.48838C45.3953 8.336 48.6571 10.8869 48.6571 10.8869C49.0653 11.0979 49.3426 11.4963 49.413 11.9494C49.4833 12.4104 49.3328 12.8635 49.0106 13.1955L44.8505 17.4181C44.4071 17.8674 43.7216 17.9845 43.1551 17.6916C43.1551 17.6916 40.6922 15.9378 38.5633 15.383C36.4363 14.8282 34.202 14.547 31.8485 14.547C28.7723 14.547 26.4988 15.1369 25.0321 16.3106C23.5595 17.4923 22.829 19.0274 22.829 20.92C22.829 22.6251 23.3426 23.9297 24.3953 24.8399C25.4402 25.7579 27.204 26.3535 29.6902 26.6055L36.6531 27.1992C41.8152 27.6562 45.7235 29.0274 48.3698 31.3145C51.0202 33.6055 52.3425 36.9415 52.3425 41.3165C52.3427 43.9395 51.8192 46.2226 50.7743 48.1855Z" fill="#0B32FF"/>
</g>
<defs>
<clipPath id="clip0_49_82">
<rect width="64" height="64" fill="white" transform="translate(0 0.1875)"/>
</clipPath>
</defs>
</svg>
