<svg width="16" height="17" viewBox="0 0 16 17" fill="none" xmlns="http://www.w3.org/2000/svg">
<g clip-path="url(#clip0_104_78)">
<path fill-rule="evenodd" clip-rule="evenodd" d="M8 0.875C12.4184 0.875 16 4.54694 16 9.07734C16 12.7005 13.7104 15.7742 10.5336 16.8598C10.128 16.9406 9.984 16.6844 9.984 16.466C9.984 16.1956 9.9936 15.3124 9.9936 14.2148C9.9936 13.45 9.7376 12.9509 9.4504 12.6965C11.232 12.4933 13.104 11.7996 13.104 8.64922C13.104 7.75322 12.7936 7.02206 12.28 6.44766C12.3632 6.24046 12.6376 5.40616 12.2016 4.27656C12.2016 4.27656 11.5312 4.05678 10.004 5.11758C9.3648 4.93598 8.68 4.84461 8 4.84141C7.32 4.84461 6.636 4.93598 5.9976 5.11758C4.4688 4.05678 3.7968 4.27656 3.7968 4.27656C3.3624 5.40616 3.6368 6.24046 3.7192 6.44766C3.208 7.02206 2.8952 7.75322 2.8952 8.64922C2.8952 11.7916 4.7632 12.4959 6.54 12.7031C6.3112 12.9079 6.104 13.2692 6.032 13.7996C5.576 14.0092 4.4176 14.372 3.704 13.1184C3.704 13.1184 3.2808 12.3303 2.4776 12.2727C2.4776 12.2727 1.6976 12.2623 2.4232 12.7711C2.4232 12.7711 2.9472 13.0231 3.3112 13.9711C3.3112 13.9711 3.7808 15.4351 6.0064 14.9391C6.0104 15.6247 6.0176 16.2708 6.0176 16.466C6.0176 16.6828 5.8704 16.9365 5.4712 16.8605C2.292 15.7765 0 12.7013 0 9.07734C0 4.54694 3.5824 0.875 8 0.875Z" fill="#0B32FF"/>
</g>
<defs>
<clipPath id="clip0_104_78">
<rect width="16" height="16" fill="white" transform="translate(0 0.875)"/>
</clipPath>
</defs>
</svg>
