<svg width="65" height="65" viewBox="0 0 65 65" fill="none" xmlns="http://www.w3.org/2000/svg">
<rect x="0.5" y="0.1875" width="64" height="64" fill="#0B32FF"/>
<g clip-path="url(#clip0_50_131)">
<path fill-rule="evenodd" clip-rule="evenodd" d="M32.5 16.1875C41.3368 16.1875 48.5 23.5314 48.5 32.5922C48.5 39.8386 43.9208 45.9858 37.5672 48.157C36.756 48.3186 36.468 47.8063 36.468 47.3695C36.468 46.8287 36.4872 45.0624 36.4872 42.8672C36.4872 41.3376 35.9752 40.3393 35.4008 39.8305C38.964 39.4241 42.708 38.0367 42.708 31.7359C42.708 29.9439 42.0872 28.4816 41.06 27.3328C41.2264 26.9184 41.7752 25.2498 40.9032 22.9906C40.9032 22.9906 39.5624 22.5511 36.508 24.6727C35.2296 24.3095 33.86 24.1267 32.5 24.1203C31.14 24.1267 29.772 24.3095 28.4952 24.6727C25.4376 22.5511 24.0936 22.9906 24.0936 22.9906C23.2248 25.2498 23.7736 26.9184 23.9384 27.3328C22.916 28.4816 22.2904 29.9439 22.2904 31.7359C22.2904 38.0207 26.0264 39.4293 29.58 39.8438C29.1224 40.2534 28.708 40.9759 28.564 42.0367C27.652 42.4559 25.3352 43.1814 23.908 40.6742C23.908 40.6742 23.0616 39.098 21.4552 38.9828C21.4552 38.9828 19.8952 38.9621 21.3464 39.9797C21.3464 39.9797 22.3944 40.4837 23.1224 42.3797C23.1224 42.3797 24.0616 45.3076 28.5128 44.3156C28.5208 45.6868 28.5352 46.9791 28.5352 47.3695C28.5352 47.8031 28.2408 48.3106 27.4424 48.1586C21.084 45.9906 16.5 39.8402 16.5 32.5922C16.5 23.5314 23.6648 16.1875 32.5 16.1875Z" fill="white"/>
</g>
<defs>
<clipPath id="clip0_50_131">
<rect width="32" height="32" fill="white" transform="translate(16.5 16.1875)"/>
</clipPath>
</defs>
</svg>
