<svg width="64" height="64" viewBox="0 0 64 64" fill="none" xmlns="http://www.w3.org/2000/svg">
<rect width="64" height="64" fill="#001D45"/>
<path fill-rule="evenodd" clip-rule="evenodd" d="M32 18C24.2688 18 18 24.425 18 32.3563C18 38.7 22.0125 44.075 27.575 45.975C28.275 46.1063 28.5312 45.6625 28.5312 45.2812C28.5312 44.9375 28.5187 44.0375 28.5125 42.8375C24.6187 43.7062 23.7937 40.9125 23.7937 40.9125C23.1562 39.2563 22.2375 38.8125 22.2375 38.8125C20.9688 37.9187 22.3313 37.9375 22.3313 37.9375C23.7375 38.0375 24.475 39.4188 24.475 39.4188C25.725 41.6125 27.75 40.9812 28.55 40.6125C28.675 39.6875 29.0375 39.05 29.4375 38.6938C26.3312 38.3313 23.0625 37.1 23.0625 31.6C23.0625 30.0313 23.6062 28.75 24.5 27.75C24.3563 27.3875 23.875 25.925 24.6375 23.95C24.6375 23.95 25.8125 23.5625 28.4875 25.4187C29.6063 25.1 30.8 24.9438 31.9937 24.9375C33.1812 24.9438 34.3813 25.1 35.5 25.4187C38.175 23.5625 39.3438 23.95 39.3438 23.95C40.1062 25.925 39.625 27.3875 39.4813 27.75C40.375 28.7563 40.9188 30.0375 40.9188 31.6C40.9188 37.1125 37.6437 38.325 34.525 38.6812C35.025 39.125 35.475 40 35.475 41.3375C35.475 43.2562 35.4562 44.8062 35.4562 45.275C35.4562 45.6562 35.7063 46.1062 36.4188 45.9625C41.9938 44.0687 46 38.6938 46 32.3563C46 24.425 39.7312 18 32 18Z" fill="white"/>
</svg>
