<svg width="447" height="278" viewBox="0 0 447 278" fill="none" xmlns="http://www.w3.org/2000/svg">
<g clip-path="url(#clip0_68_22)">
<path d="M260.376 49.0082C268.754 49.0082 275.545 43.2008 275.545 36.0371C275.545 28.8733 268.754 23.066 260.376 23.066C251.998 23.066 245.207 28.8733 245.207 36.0371C245.207 43.2008 251.998 49.0082 260.376 49.0082Z" fill="#F2F2F2"/>
<path d="M378.046 241.514C400.593 226.829 411.362 202.152 404.621 178.612C404.453 178.027 404.276 177.444 404.09 176.861C399.621 162.888 388.563 149.608 372.446 145.143C358.914 141.394 344.143 144.277 330.026 142.786C302.313 139.86 280.827 120.686 265.71 100.61C250.592 80.5343 238.973 58.0624 218.885 41.477C185.773 14.1387 131.759 8.25272 90.7045 26.0479C49.6503 43.8431 23.4991 83.3233 24.6144 122.67C25.7297 162.017 53.0462 199.636 92.7165 219.595C107.29 226.927 124.145 232.121 140.92 230.303C155.475 228.726 168.7 222.039 183.186 220.053C205.962 216.932 228.593 225.738 248.293 235.999C267.993 246.26 287.021 258.423 309.407 263.18C331.144 267.8 358.073 254.523 378.046 241.514Z" fill="#F2F2F2"/>
<path d="M345.652 26.8742C345.158 26.5924 344.658 26.3252 344.164 26.0532C329.876 18.2395 314.563 11.8918 298.539 7.14115L294.824 50.9696H271.27V0.743235C269.787 0.480906 268.293 0.233151 266.799 -3.05176e-05V50.9696H238.808C223.399 50.9696 208.621 45.7352 197.725 36.418C186.829 27.1008 180.707 14.4639 180.707 1.28738C179.207 1.56429 177.719 1.86058 176.231 2.17634V50.9696H153.432L149.893 9.17664C133.426 14.5769 117.793 21.6785 103.342 30.3233C103.092 30.469 102.842 30.6196 102.598 30.7654C101.342 31.5184 100.104 32.2859 98.8711 33.0632V200.269H166.061L164.874 186.205L158.341 108.988H289.909L283.376 186.205L282.189 200.269H348.635V28.5647C347.646 27.9915 346.652 27.428 345.652 26.8742ZM176.231 96.236H157.261L153.756 54.7976H176.231V96.236ZM266.799 96.236H234.939V95.415C234.939 95.0203 234.848 94.6295 234.671 94.2649C234.495 93.9004 234.235 93.5692 233.909 93.2903C233.582 93.0115 233.194 92.7904 232.768 92.6399C232.341 92.4893 231.884 92.4121 231.422 92.4128H217.572C217.111 92.4126 216.654 92.4902 216.228 92.641C215.802 92.7918 215.415 93.0129 215.089 93.2917C214.763 93.5705 214.504 93.9016 214.328 94.2659C214.152 94.6302 214.061 95.0207 214.061 95.415V96.236H180.707V54.7976H266.799V96.236ZM271.27 96.236V54.7976H294.5L290.994 96.236H271.27Z" fill="#3F3D56"/>
<path d="M0 210.976C4.93531 215.977 10.2734 220.676 15.9752 225.04L431.025 225.526C436.727 221.162 442.065 216.463 447 211.462L0 210.976Z" fill="#3F3D56"/>
<path d="M281.459 165.943V207.578C281.459 208.109 281.706 208.617 282.145 208.992C282.584 209.368 283.179 209.579 283.799 209.579H355.952C356.572 209.579 357.167 209.368 357.606 208.992C358.044 208.617 358.291 208.109 358.292 207.578V165.943C358.29 165.413 358.043 164.905 357.604 164.531C357.166 164.156 356.571 163.945 355.952 163.945H283.799C283.179 163.945 282.585 164.156 282.146 164.531C281.708 164.905 281.46 165.413 281.459 165.943Z" fill="#3F3D56"/>
<path d="M283.15 166.461V207.064C283.151 207.348 283.283 207.62 283.517 207.82C283.752 208.021 284.07 208.133 284.401 208.134H355.35C355.681 208.133 355.999 208.021 356.233 207.82C356.468 207.62 356.6 207.348 356.6 207.064V166.461C356.6 166.178 356.469 165.905 356.234 165.704C356 165.504 355.682 165.39 355.35 165.39H284.401C284.069 165.39 283.751 165.504 283.517 165.704C283.282 165.905 283.15 166.178 283.15 166.461Z" fill="url(#paint0_linear_68_22)"/>
<path d="M279.949 215.698C280.081 215.84 280.249 215.954 280.44 216.032C280.631 216.11 280.841 216.15 281.053 216.15H358.311C358.522 216.149 358.731 216.109 358.922 216.031C359.112 215.953 359.28 215.84 359.413 215.7C359.546 215.559 359.641 215.395 359.691 215.22C359.741 215.044 359.744 214.861 359.701 214.685L358.501 209.813C358.452 209.615 358.345 209.43 358.19 209.276C358.035 209.121 357.838 209.003 357.616 208.93C357.455 208.876 357.284 208.849 357.112 208.849H282.247C282.075 208.849 281.903 208.876 281.743 208.93C281.521 209.003 281.323 209.121 281.169 209.276C281.014 209.43 280.907 209.615 280.858 209.813L279.658 214.685C279.616 214.861 279.619 215.044 279.67 215.219C279.72 215.394 279.815 215.558 279.949 215.698Z" fill="#2F2E41"/>
<path d="M354.462 210.947H356.287C356.44 210.947 356.564 210.841 356.564 210.71V209.963C356.564 209.832 356.44 209.726 356.287 209.726H354.462C354.309 209.726 354.185 209.832 354.185 209.963V210.71C354.185 210.841 354.309 210.947 354.462 210.947Z" fill="#3F3D56"/>
<path d="M349.703 210.947H351.527C351.68 210.947 351.805 210.841 351.805 210.71V209.963C351.805 209.832 351.68 209.726 351.527 209.726H349.703C349.549 209.726 349.425 209.832 349.425 209.963V210.71C349.425 210.841 349.549 210.947 349.703 210.947Z" fill="#3F3D56"/>
<path d="M344.943 210.947H346.768C346.921 210.947 347.045 210.841 347.045 210.71V209.963C347.045 209.832 346.921 209.726 346.768 209.726H344.943C344.79 209.726 344.665 209.832 344.665 209.963V210.71C344.665 210.841 344.79 210.947 344.943 210.947Z" fill="#3F3D56"/>
<path d="M340.185 210.947H342.01C342.163 210.947 342.287 210.841 342.287 210.71V209.963C342.287 209.832 342.163 209.726 342.01 209.726H340.185C340.032 209.726 339.908 209.832 339.908 209.963V210.71C339.908 210.841 340.032 210.947 340.185 210.947Z" fill="#3F3D56"/>
<path d="M335.425 210.947H337.25C337.403 210.947 337.527 210.841 337.527 210.71V209.963C337.527 209.832 337.403 209.726 337.25 209.726H335.425C335.272 209.726 335.148 209.832 335.148 209.963V210.71C335.148 210.841 335.272 210.947 335.425 210.947Z" fill="#3F3D56"/>
<path d="M330.667 210.947H332.492C332.645 210.947 332.77 210.841 332.77 210.71V209.963C332.77 209.832 332.645 209.726 332.492 209.726H330.667C330.514 209.726 330.39 209.832 330.39 209.963V210.71C330.39 210.841 330.514 210.947 330.667 210.947Z" fill="#3F3D56"/>
<path d="M325.908 210.947H327.732C327.886 210.947 328.01 210.841 328.01 210.71V209.963C328.01 209.832 327.886 209.726 327.732 209.726H325.908C325.754 209.726 325.63 209.832 325.63 209.963V210.71C325.63 210.841 325.754 210.947 325.908 210.947Z" fill="#3F3D56"/>
<path d="M321.148 210.947H322.973C323.126 210.947 323.25 210.841 323.25 210.71V209.963C323.25 209.832 323.126 209.726 322.973 209.726H321.148C320.995 209.726 320.87 209.832 320.87 209.963V210.71C320.87 210.841 320.995 210.947 321.148 210.947Z" fill="#3F3D56"/>
<path d="M316.39 210.947H318.215C318.368 210.947 318.492 210.841 318.492 210.71V209.963C318.492 209.832 318.368 209.726 318.215 209.726H316.39C316.237 209.726 316.113 209.832 316.113 209.963V210.71C316.113 210.841 316.237 210.947 316.39 210.947Z" fill="#3F3D56"/>
<path d="M311.63 210.947H313.455C313.608 210.947 313.732 210.841 313.732 210.71V209.963C313.732 209.832 313.608 209.726 313.455 209.726H311.63C311.477 209.726 311.353 209.832 311.353 209.963V210.71C311.353 210.841 311.477 210.947 311.63 210.947Z" fill="#3F3D56"/>
<path d="M306.87 210.947H308.695C308.849 210.947 308.973 210.841 308.973 210.71V209.963C308.973 209.832 308.849 209.726 308.695 209.726H306.87C306.717 209.726 306.593 209.832 306.593 209.963V210.71C306.593 210.841 306.717 210.947 306.87 210.947Z" fill="#3F3D56"/>
<path d="M302.113 210.947H303.937C304.091 210.947 304.215 210.841 304.215 210.71V209.963C304.215 209.832 304.091 209.726 303.937 209.726H302.113C301.959 209.726 301.835 209.832 301.835 209.963V210.71C301.835 210.841 301.959 210.947 302.113 210.947Z" fill="#3F3D56"/>
<path d="M297.353 210.947H299.178C299.331 210.947 299.455 210.841 299.455 210.71V209.963C299.455 209.832 299.331 209.726 299.178 209.726H297.353C297.2 209.726 297.076 209.832 297.076 209.963V210.71C297.076 210.841 297.2 210.947 297.353 210.947Z" fill="#3F3D56"/>
<path d="M292.595 210.947H294.42C294.573 210.947 294.697 210.841 294.697 210.71V209.963C294.697 209.832 294.573 209.726 294.42 209.726H292.595C292.442 209.726 292.318 209.832 292.318 209.963V210.71C292.318 210.841 292.442 210.947 292.595 210.947Z" fill="#3F3D56"/>
<path d="M287.835 210.947H289.66C289.813 210.947 289.938 210.841 289.938 210.71V209.963C289.938 209.832 289.813 209.726 289.66 209.726H287.835C287.682 209.726 287.558 209.832 287.558 209.963V210.71C287.558 210.841 287.682 210.947 287.835 210.947Z" fill="#3F3D56"/>
<path d="M283.076 210.947H284.9C285.054 210.947 285.178 210.841 285.178 210.71V209.963C285.178 209.832 285.054 209.726 284.9 209.726H283.076C282.922 209.726 282.798 209.832 282.798 209.963V210.71C282.798 210.841 282.922 210.947 283.076 210.947Z" fill="#3F3D56"/>
<path d="M354.519 212.982H356.344C356.497 212.982 356.621 212.876 356.621 212.745V211.998C356.621 211.867 356.497 211.761 356.344 211.761H354.519C354.366 211.761 354.242 211.867 354.242 211.998V212.745C354.242 212.876 354.366 212.982 354.519 212.982Z" fill="#3F3D56"/>
<path d="M349.759 212.982H351.584C351.737 212.982 351.861 212.876 351.861 212.745V211.998C351.861 211.867 351.737 211.761 351.584 211.761H349.759C349.606 211.761 349.482 211.867 349.482 211.998V212.745C349.482 212.876 349.606 212.982 349.759 212.982Z" fill="#3F3D56"/>
<path d="M344.999 212.982H346.824C346.977 212.982 347.102 212.876 347.102 212.745V211.998C347.102 211.867 346.977 211.761 346.824 211.761H344.999C344.846 211.761 344.722 211.867 344.722 211.998V212.745C344.722 212.876 344.846 212.982 344.999 212.982Z" fill="#3F3D56"/>
<path d="M340.242 212.982H342.066C342.22 212.982 342.344 212.876 342.344 212.745V211.998C342.344 211.867 342.22 211.761 342.066 211.761H340.242C340.088 211.761 339.964 211.867 339.964 211.998V212.745C339.964 212.876 340.088 212.982 340.242 212.982Z" fill="#3F3D56"/>
<path d="M335.482 212.982H337.307C337.46 212.982 337.584 212.876 337.584 212.745V211.998C337.584 211.867 337.46 211.761 337.307 211.761H335.482C335.329 211.761 335.204 211.867 335.204 211.998V212.745C335.204 212.876 335.329 212.982 335.482 212.982Z" fill="#3F3D56"/>
<path d="M330.722 212.982H332.547C332.7 212.982 332.824 212.876 332.824 212.745V211.998C332.824 211.867 332.7 211.761 332.547 211.761H330.722C330.569 211.761 330.445 211.867 330.445 211.998V212.745C330.445 212.876 330.569 212.982 330.722 212.982Z" fill="#3F3D56"/>
<path d="M325.964 212.982H327.789C327.942 212.982 328.066 212.876 328.066 212.745V211.998C328.066 211.867 327.942 211.761 327.789 211.761H325.964C325.811 211.761 325.687 211.867 325.687 211.998V212.745C325.687 212.876 325.811 212.982 325.964 212.982Z" fill="#3F3D56"/>
<path d="M321.204 212.982H323.029C323.182 212.982 323.307 212.876 323.307 212.745V211.998C323.307 211.867 323.182 211.761 323.029 211.761H321.204C321.051 211.761 320.927 211.867 320.927 211.998V212.745C320.927 212.876 321.051 212.982 321.204 212.982Z" fill="#3F3D56"/>
<path d="M316.445 212.982H318.27C318.423 212.982 318.547 212.876 318.547 212.745V211.998C318.547 211.867 318.423 211.761 318.27 211.761H316.445C316.292 211.761 316.167 211.867 316.167 211.998V212.745C316.167 212.876 316.292 212.982 316.445 212.982Z" fill="#3F3D56"/>
<path d="M311.687 212.982H313.512C313.665 212.982 313.789 212.876 313.789 212.745V211.998C313.789 211.867 313.665 211.761 313.512 211.761H311.687C311.534 211.761 311.41 211.867 311.41 211.998V212.745C311.41 212.876 311.534 212.982 311.687 212.982Z" fill="#3F3D56"/>
<path d="M306.927 212.982H308.752C308.905 212.982 309.029 212.876 309.029 212.745V211.998C309.029 211.867 308.905 211.761 308.752 211.761H306.927C306.774 211.761 306.65 211.867 306.65 211.998V212.745C306.65 212.876 306.774 212.982 306.927 212.982Z" fill="#3F3D56"/>
<path d="M302.169 212.982H303.994C304.147 212.982 304.271 212.876 304.271 212.745V211.998C304.271 211.867 304.147 211.761 303.994 211.761H302.169C302.016 211.761 301.892 211.867 301.892 211.998V212.745C301.892 212.876 302.016 212.982 302.169 212.982Z" fill="#3F3D56"/>
<path d="M297.41 212.982H299.234C299.388 212.982 299.512 212.876 299.512 212.745V211.998C299.512 211.867 299.388 211.761 299.234 211.761H297.41C297.256 211.761 297.132 211.867 297.132 211.998V212.745C297.132 212.876 297.256 212.982 297.41 212.982Z" fill="#3F3D56"/>
<path d="M292.65 212.982H294.475C294.628 212.982 294.752 212.876 294.752 212.745V211.998C294.752 211.867 294.628 211.761 294.475 211.761H292.65C292.497 211.761 292.372 211.867 292.372 211.998V212.745C292.372 212.876 292.497 212.982 292.65 212.982Z" fill="#3F3D56"/>
<path d="M287.892 212.982H289.717C289.87 212.982 289.994 212.876 289.994 212.745V211.998C289.994 211.867 289.87 211.761 289.717 211.761H287.892C287.739 211.761 287.615 211.867 287.615 211.998V212.745C287.615 212.876 287.739 212.982 287.892 212.982Z" fill="#3F3D56"/>
<path d="M283.132 212.982H284.957C285.11 212.982 285.234 212.876 285.234 212.745V211.998C285.234 211.867 285.11 211.761 284.957 211.761H283.132C282.979 211.761 282.855 211.867 282.855 211.998V212.745C282.855 212.876 282.979 212.982 283.132 212.982Z" fill="#3F3D56"/>
<path d="M315.019 215.423H333.5C333.653 215.423 333.777 215.317 333.777 215.186V214.44C333.777 214.309 333.653 214.203 333.5 214.203H315.019C314.865 214.203 314.741 214.309 314.741 214.44V215.186C314.741 215.317 314.865 215.423 315.019 215.423Z" fill="#3F3D56"/>
<path d="M295.438 174.273H293.822C293.333 174.273 292.936 174.612 292.936 175.031C292.936 175.45 293.333 175.789 293.822 175.789H295.438C295.928 175.789 296.325 175.45 296.325 175.031C296.325 174.612 295.928 174.273 295.438 174.273Z" fill="white"/>
<path d="M313.915 174.273H312.299C311.809 174.273 311.412 174.612 311.412 175.031C311.412 175.45 311.809 175.789 312.299 175.789H313.915C314.404 175.789 314.801 175.45 314.801 175.031C314.801 174.612 314.404 174.273 313.915 174.273Z" fill="white"/>
<path d="M319.149 174.273H317.533C317.044 174.273 316.646 174.612 316.646 175.031C316.646 175.45 317.044 175.789 317.533 175.789H319.149C319.639 175.789 320.036 175.45 320.036 175.031C320.036 174.612 319.639 174.273 319.149 174.273Z" fill="white"/>
<path d="M308.889 174.146H298.848C298.358 174.146 297.961 174.486 297.961 174.905C297.961 175.323 298.358 175.663 298.848 175.663H308.889C309.378 175.663 309.775 175.323 309.775 174.905C309.775 174.486 309.378 174.146 308.889 174.146Z" fill="white"/>
<path d="M333.523 174.146H323.483C322.993 174.146 322.596 174.486 322.596 174.905C322.596 175.323 322.993 175.663 323.483 175.663H333.523C334.013 175.663 334.41 175.323 334.41 174.905C334.41 174.486 334.013 174.146 333.523 174.146Z" fill="white"/>
<path d="M300.364 177.696H298.748C298.258 177.696 297.861 178.035 297.861 178.454C297.861 178.873 298.258 179.213 298.748 179.213H300.364C300.854 179.213 301.251 178.873 301.251 178.454C301.251 178.035 300.854 177.696 300.364 177.696Z" fill="white"/>
<path d="M318.84 177.696H317.225C316.735 177.696 316.338 178.035 316.338 178.454C316.338 178.873 316.735 179.213 317.225 179.213H318.84C319.33 179.213 319.727 178.873 319.727 178.454C319.727 178.035 319.33 177.696 318.84 177.696Z" fill="white"/>
<path d="M324.077 177.696H322.461C321.971 177.696 321.574 178.035 321.574 178.454C321.574 178.873 321.971 179.213 322.461 179.213H324.077C324.566 179.213 324.963 178.873 324.963 178.454C324.963 178.035 324.566 177.696 324.077 177.696Z" fill="white"/>
<path d="M313.816 177.569H303.776C303.286 177.569 302.889 177.909 302.889 178.328C302.889 178.747 303.286 179.086 303.776 179.086H313.816C314.306 179.086 314.703 178.747 314.703 178.328C314.703 177.909 314.306 177.569 313.816 177.569Z" fill="white"/>
<path d="M338.451 177.569H328.41C327.921 177.569 327.523 177.909 327.523 178.328C327.523 178.747 327.921 179.086 328.41 179.086H338.451C338.941 179.086 339.338 178.747 339.338 178.328C339.338 177.909 338.941 177.569 338.451 177.569Z" fill="white"/>
<path d="M305.291 181.119H303.676C303.186 181.119 302.789 181.459 302.789 181.878C302.789 182.296 303.186 182.636 303.676 182.636H305.291C305.781 182.636 306.178 182.296 306.178 181.878C306.178 181.459 305.781 181.119 305.291 181.119Z" fill="white"/>
<path d="M323.768 181.119H322.152C321.663 181.119 321.266 181.459 321.266 181.878C321.266 182.296 321.663 182.636 322.152 182.636H323.768C324.258 182.636 324.655 182.296 324.655 181.878C324.655 181.459 324.258 181.119 323.768 181.119Z" fill="white"/>
<path d="M329.002 181.119H327.387C326.897 181.119 326.5 181.459 326.5 181.878C326.5 182.296 326.897 182.636 327.387 182.636H329.002C329.492 182.636 329.889 182.296 329.889 181.878C329.889 181.459 329.492 181.119 329.002 181.119Z" fill="white"/>
<path d="M318.742 180.993H308.701C308.211 180.993 307.814 181.332 307.814 181.751C307.814 182.17 308.211 182.509 308.701 182.509H318.742C319.232 182.509 319.629 182.17 319.629 181.751C319.629 181.332 319.232 180.993 318.742 180.993Z" fill="white"/>
<path d="M343.379 180.993H333.338C332.848 180.993 332.451 181.332 332.451 181.751C332.451 182.17 332.848 182.509 333.338 182.509H343.379C343.869 182.509 344.266 182.17 344.266 181.751C344.266 181.332 343.869 180.993 343.379 180.993Z" fill="white"/>
<path d="M310.219 184.542H308.604C308.114 184.542 307.717 184.882 307.717 185.301C307.717 185.72 308.114 186.059 308.604 186.059H310.219C310.709 186.059 311.106 185.72 311.106 185.301C311.106 184.882 310.709 184.542 310.219 184.542Z" fill="white"/>
<path d="M328.696 184.542H327.08C326.59 184.542 326.193 184.882 326.193 185.301C326.193 185.72 326.59 186.059 327.08 186.059H328.696C329.186 186.059 329.583 185.72 329.583 185.301C329.583 184.882 329.186 184.542 328.696 184.542Z" fill="white"/>
<path d="M333.93 184.542H332.315C331.825 184.542 331.428 184.882 331.428 185.301C331.428 185.72 331.825 186.059 332.315 186.059H333.93C334.42 186.059 334.817 185.72 334.817 185.301C334.817 184.882 334.42 184.542 333.93 184.542Z" fill="white"/>
<path d="M323.67 184.416H313.629C313.139 184.416 312.742 184.756 312.742 185.174C312.742 185.593 313.139 185.933 313.629 185.933H323.67C324.16 185.933 324.557 185.593 324.557 185.174C324.557 184.756 324.16 184.416 323.67 184.416Z" fill="white"/>
<path d="M313.915 198.155H312.299C311.809 198.155 311.412 198.494 311.412 198.913C311.412 199.332 311.809 199.671 312.299 199.671H313.915C314.404 199.671 314.801 199.332 314.801 198.913C314.801 198.494 314.404 198.155 313.915 198.155Z" fill="white"/>
<path d="M319.149 198.155H317.533C317.044 198.155 316.646 198.494 316.646 198.913C316.646 199.332 317.044 199.671 317.533 199.671H319.149C319.639 199.671 320.036 199.332 320.036 198.913C320.036 198.494 319.639 198.155 319.149 198.155Z" fill="white"/>
<path d="M333.523 198.281H323.483C322.993 198.281 322.596 198.621 322.596 199.039C322.596 199.458 322.993 199.798 323.483 199.798H333.523C334.013 199.798 334.41 199.458 334.41 199.039C334.41 198.621 334.013 198.281 333.523 198.281Z" fill="white"/>
<path d="M295.438 198.155H293.822C293.333 198.155 292.936 198.494 292.936 198.913C292.936 199.332 293.333 199.671 293.822 199.671H295.438C295.928 199.671 296.325 199.332 296.325 198.913C296.325 198.494 295.928 198.155 295.438 198.155Z" fill="white"/>
<path d="M308.889 198.281H298.848C298.358 198.281 297.961 198.621 297.961 199.039C297.961 199.458 298.358 199.798 298.848 199.798H308.889C309.378 199.798 309.775 199.458 309.775 199.039C309.775 198.621 309.378 198.281 308.889 198.281Z" fill="white"/>
<path d="M300.364 194.731H298.748C298.258 194.731 297.861 195.071 297.861 195.49C297.861 195.909 298.258 196.248 298.748 196.248H300.364C300.854 196.248 301.251 195.909 301.251 195.49C301.251 195.071 300.854 194.731 300.364 194.731Z" fill="white"/>
<path d="M318.84 194.731H317.225C316.735 194.731 316.338 195.071 316.338 195.49C316.338 195.909 316.735 196.248 317.225 196.248H318.84C319.33 196.248 319.727 195.909 319.727 195.49C319.727 195.071 319.33 194.731 318.84 194.731Z" fill="white"/>
<path d="M324.077 194.731H322.461C321.971 194.731 321.574 195.071 321.574 195.49C321.574 195.909 321.971 196.248 322.461 196.248H324.077C324.566 196.248 324.963 195.909 324.963 195.49C324.963 195.071 324.566 194.731 324.077 194.731Z" fill="white"/>
<path d="M313.816 194.858H303.776C303.286 194.858 302.889 195.197 302.889 195.616C302.889 196.035 303.286 196.375 303.776 196.375H313.816C314.306 196.375 314.703 196.035 314.703 195.616C314.703 195.197 314.306 194.858 313.816 194.858Z" fill="white"/>
<path d="M305.291 191.308H303.676C303.186 191.308 302.789 191.648 302.789 192.066C302.789 192.485 303.186 192.825 303.676 192.825H305.291C305.781 192.825 306.178 192.485 306.178 192.066C306.178 191.648 305.781 191.308 305.291 191.308Z" fill="white"/>
<path d="M323.768 191.308H322.152C321.663 191.308 321.266 191.648 321.266 192.066C321.266 192.485 321.663 192.825 322.152 192.825H323.768C324.258 192.825 324.655 192.485 324.655 192.066C324.655 191.648 324.258 191.308 323.768 191.308Z" fill="white"/>
<path d="M329.002 191.308H327.387C326.897 191.308 326.5 191.648 326.5 192.066C326.5 192.485 326.897 192.825 327.387 192.825H329.002C329.492 192.825 329.889 192.485 329.889 192.066C329.889 191.648 329.492 191.308 329.002 191.308Z" fill="white"/>
<path d="M318.742 191.435H308.701C308.211 191.435 307.814 191.774 307.814 192.193C307.814 192.612 308.211 192.951 308.701 192.951H318.742C319.232 192.951 319.629 192.612 319.629 192.193C319.629 191.774 319.232 191.435 318.742 191.435Z" fill="white"/>
<path d="M310.219 187.885H308.604C308.114 187.885 307.717 188.224 307.717 188.643C307.717 189.062 308.114 189.402 308.604 189.402H310.219C310.709 189.402 311.106 189.062 311.106 188.643C311.106 188.224 310.709 187.885 310.219 187.885Z" fill="white"/>
<path d="M328.696 187.885H327.08C326.59 187.885 326.193 188.224 326.193 188.643C326.193 189.062 326.59 189.402 327.08 189.402H328.696C329.186 189.402 329.583 189.062 329.583 188.643C329.583 188.224 329.186 187.885 328.696 187.885Z" fill="white"/>
<path d="M333.93 187.885H332.315C331.825 187.885 331.428 188.224 331.428 188.643C331.428 189.062 331.825 189.402 332.315 189.402H333.93C334.42 189.402 334.817 189.062 334.817 188.643C334.817 188.224 334.42 187.885 333.93 187.885Z" fill="white"/>
<path d="M323.67 188.011H313.629C313.139 188.011 312.742 188.351 312.742 188.77C312.742 189.189 313.139 189.528 313.629 189.528H323.67C324.16 189.528 324.557 189.189 324.557 188.77C324.557 188.351 324.16 188.011 323.67 188.011Z" fill="white"/>
<path d="M286.848 238.274L279.264 228.022L303.069 211.796L312.894 202.487C314.171 201.278 315.796 200.376 317.608 199.872C319.42 199.368 321.354 199.28 323.219 199.616C325.083 199.951 326.811 200.7 328.231 201.786C329.652 202.872 330.714 204.257 331.311 205.804C332.197 208.096 332.006 210.593 330.78 212.768C329.554 214.942 327.387 216.624 324.738 217.459L309.201 222.353L286.848 238.274Z" fill="#FFB6B6"/>
<path d="M108.9 163.947V213.77H149.719V163.947C149.72 163.588 149.586 163.239 149.338 162.951C149.089 162.662 148.739 162.449 148.339 162.343C148.15 162.29 147.952 162.264 147.753 162.266H110.872C110.613 162.265 110.357 162.308 110.118 162.393C109.879 162.477 109.662 162.601 109.479 162.757C109.296 162.913 109.15 163.098 109.051 163.302C108.952 163.507 108.901 163.725 108.9 163.947ZM124.83 181.066C124.841 180.084 125.305 179.145 126.121 178.453C126.937 177.762 128.039 177.374 129.188 177.374C130.336 177.374 131.439 177.762 132.255 178.453C133.071 179.145 133.534 180.084 133.545 181.066V186.847C133.539 187.832 133.077 188.775 132.261 189.469C131.444 190.164 130.339 190.554 129.188 190.554C128.036 190.554 126.931 190.164 126.114 189.469C125.298 188.775 124.836 187.832 124.83 186.847V181.066Z" fill="#2F2E41"/>
<path d="M108.775 212.176V216.981C108.776 217.23 108.892 217.468 109.097 217.645C109.302 217.821 109.581 217.921 109.872 217.923H148.748C149.039 217.922 149.318 217.822 149.523 217.646C149.729 217.469 149.844 217.23 149.844 216.981V212.176H108.775Z" fill="#3F3D56"/>
<path d="M44.6875 88.8815V179.851C44.6886 181.011 45.2276 182.122 46.1862 182.942C47.1449 183.762 48.4448 184.223 49.8005 184.224H207.451C208.807 184.223 210.107 183.762 211.065 182.942C212.024 182.122 212.563 181.011 212.564 179.851V88.8815C212.561 87.7232 212.021 86.6133 211.062 85.7947C210.104 84.9761 208.805 84.5157 207.451 84.5142H49.8005C48.446 84.5157 47.1473 84.9761 46.189 85.7947C45.2306 86.6133 44.6907 87.7232 44.6875 88.8815Z" fill="#3F3D56"/>
<path d="M48.3867 90.0134V178.729C48.388 179.349 48.6763 179.942 49.1884 180.38C49.7006 180.818 50.395 181.065 51.1193 181.066H206.139C206.864 181.065 207.558 180.818 208.07 180.38C208.582 179.942 208.871 179.349 208.872 178.729V90.0134C208.872 89.3932 208.584 88.7984 208.072 88.3594C207.56 87.9205 206.865 87.6732 206.139 87.6718H51.1193C50.3941 87.6732 49.6991 87.9205 49.1868 88.3594C48.6745 88.7984 48.3868 89.3932 48.3867 90.0134Z" fill="white"/>
<path d="M77.155 217.598C77.3128 217.767 77.5134 217.903 77.7416 217.997C77.9699 218.09 78.22 218.138 78.473 218.137H170.7C170.952 218.137 171.201 218.088 171.429 217.995C171.656 217.903 171.857 217.767 172.016 217.6C172.175 217.432 172.288 217.237 172.347 217.027C172.407 216.818 172.411 216.599 172.359 216.388L170.927 210.573C170.868 210.336 170.74 210.115 170.556 209.931C170.371 209.747 170.135 209.605 169.87 209.519C169.679 209.455 169.474 209.422 169.268 209.422H79.899C79.6929 209.422 79.4886 209.455 79.2968 209.519C79.0318 209.605 78.7963 209.747 78.6117 209.931C78.4272 210.115 78.2994 210.336 78.2401 210.573L76.8085 216.388C76.7575 216.599 76.7622 216.817 76.8221 217.026C76.8821 217.236 76.9958 217.431 77.155 217.598Z" fill="#2F2E41"/>
<path d="M201.108 99.8928H56.0563C55.9056 99.89 55.7621 99.8368 55.6567 99.7446C55.5512 99.6524 55.4922 99.5285 55.4922 99.3996C55.4922 99.2706 55.5512 99.1468 55.6567 99.0546C55.7621 98.9624 55.9056 98.9092 56.0563 98.9063H201.108C201.259 98.9092 201.402 98.9624 201.508 99.0546C201.613 99.1468 201.672 99.2706 201.672 99.3996C201.672 99.5285 201.613 99.6524 201.508 99.7446C201.402 99.8368 201.259 99.89 201.108 99.8928Z" fill="#3F3D56"/>
<path d="M65.9293 96.3879C67.7963 96.3879 69.3098 95.0648 69.3098 93.4328C69.3098 91.8007 67.7963 90.4777 65.9293 90.4777C64.0623 90.4777 62.5488 91.8007 62.5488 93.4328C62.5488 95.0648 64.0623 96.3879 65.9293 96.3879Z" fill="#3F3D56"/>
<path d="M77.6071 96.3879C79.4741 96.3879 80.9875 95.0648 80.9875 93.4328C80.9875 91.8007 79.4741 90.4777 77.6071 90.4777C75.7401 90.4777 74.2266 91.8007 74.2266 93.4328C74.2266 95.0648 75.7401 96.3879 77.6071 96.3879Z" fill="#3F3D56"/>
<path d="M89.2867 96.3879C91.1537 96.3879 92.6672 95.0648 92.6672 93.4328C92.6672 91.8007 91.1537 90.4777 89.2867 90.4777C87.4197 90.4777 85.9062 91.8007 85.9062 93.4328C85.9062 95.0648 87.4197 96.3879 89.2867 96.3879Z" fill="#3F3D56"/>
<path d="M194.076 91.2085H185.781C185.617 91.2117 185.461 91.2697 185.347 91.37C185.232 91.4703 185.168 91.605 185.168 91.7453C185.168 91.8855 185.232 92.0202 185.347 92.1205C185.461 92.2208 185.617 92.2788 185.781 92.2821H194.076C194.241 92.2801 194.398 92.2226 194.514 92.1222C194.63 92.0217 194.695 91.8863 194.695 91.7453C194.695 91.6042 194.63 91.4688 194.514 91.3683C194.398 91.2679 194.241 91.2104 194.076 91.2085Z" fill="#3F3D56"/>
<path d="M194.076 93.2245H185.782C185.618 93.2276 185.462 93.2855 185.347 93.3859C185.232 93.4862 185.168 93.621 185.168 93.7613C185.168 93.9017 185.232 94.0364 185.347 94.1368C185.462 94.2371 185.618 94.295 185.782 94.2981H194.076C194.242 94.2964 194.399 94.2391 194.515 94.1386C194.632 94.0381 194.697 93.9026 194.697 93.7613C194.697 93.62 194.632 93.4845 194.515 93.384C194.399 93.2835 194.242 93.2262 194.076 93.2245Z" fill="#3F3D56"/>
<path d="M194.076 95.2405H185.781C185.617 95.2438 185.461 95.3018 185.347 95.4021C185.232 95.5024 185.168 95.6371 185.168 95.7773C185.168 95.9176 185.232 96.0522 185.347 96.1525C185.461 96.2529 185.617 96.3108 185.781 96.3141H194.076C194.241 96.3121 194.398 96.2547 194.514 96.1542C194.63 96.0538 194.695 95.9184 194.695 95.7773C194.695 95.6362 194.63 95.5008 194.514 95.4004C194.398 95.2999 194.241 95.2425 194.076 95.2405Z" fill="#3F3D56"/>
<path d="M394.038 214.285C394.288 214.908 394.763 215.447 395.394 215.825C396.025 216.203 396.78 216.401 397.55 216.389L412.601 216.058C413.377 216.045 414.127 215.817 414.74 215.41C415.352 215.002 415.794 214.435 415.998 213.795L418.128 194.321C418.884 194.614 419.707 194.758 420.536 194.744C421.256 194.729 421.966 194.592 422.625 194.342C423.284 194.092 423.879 193.733 424.375 193.287C424.872 192.84 425.261 192.314 425.52 191.739C425.779 191.164 425.903 190.551 425.885 189.934C425.867 189.318 425.707 188.711 425.415 188.148C425.122 187.584 424.703 187.076 424.181 186.651C423.658 186.226 423.043 185.894 422.371 185.672C421.698 185.451 420.981 185.345 420.26 185.36C419.929 185.359 419.598 185.389 419.274 185.448C418.921 185.122 418.493 184.862 418.016 184.686C417.539 184.51 417.024 184.422 416.505 184.426L393.354 184.937C393.162 184.944 392.971 184.964 392.783 184.998C392.276 185.079 391.794 185.252 391.371 185.505C390.948 185.759 390.594 186.087 390.331 186.467C390.069 186.848 389.905 187.272 389.85 187.711C389.796 188.15 389.852 188.594 390.015 189.013L394.038 214.285ZM418.565 192.999L420.081 188.358C420.253 187.822 420.257 187.257 420.092 186.719C420.166 186.719 420.231 186.689 420.304 186.689C421.343 186.67 422.348 187.005 423.099 187.619C423.85 188.234 424.286 189.078 424.31 189.966C424.334 190.855 423.946 191.715 423.229 192.359C422.513 193.003 421.527 193.378 420.488 193.401C419.816 193.419 419.151 193.28 418.565 192.999Z" fill="#2F2E41"/>
<path d="M392.783 184.998C393.276 187.41 398.822 189.105 405.489 188.81C411.621 188.569 416.634 186.728 417.553 184.546C417.213 184.46 416.859 184.419 416.505 184.426L393.354 184.937C393.162 184.944 392.971 184.964 392.783 184.998Z" fill="#3F3D56"/>
<path d="M406.712 203.584C406.742 203.577 406.771 203.566 406.798 203.551L410.066 201.722C410.106 201.7 410.138 201.67 410.161 201.634C410.183 201.599 410.195 201.559 410.195 201.519C410.195 201.479 410.183 201.439 410.161 201.403C410.138 201.368 410.106 201.338 410.066 201.316L406.669 199.413C406.638 199.395 406.603 199.383 406.566 199.377C406.53 199.371 406.492 199.371 406.455 199.378C406.419 199.384 406.384 199.397 406.353 199.415C406.322 199.433 406.295 199.456 406.275 199.482C406.254 199.509 406.24 199.539 406.233 199.571C406.227 199.602 406.227 199.634 406.235 199.665C406.242 199.697 406.257 199.726 406.278 199.753C406.299 199.779 406.326 199.802 406.358 199.819L409.392 201.519L406.487 203.145C406.43 203.176 406.389 203.224 406.37 203.279C406.351 203.334 406.355 203.393 406.382 203.446C406.409 203.498 406.457 203.541 406.517 203.566C406.578 203.592 406.647 203.598 406.712 203.584Z" fill="#6C63FF"/>
<path d="M401.549 203.787C401.604 203.775 401.654 203.75 401.691 203.714C401.729 203.678 401.753 203.633 401.761 203.585C401.769 203.537 401.76 203.488 401.735 203.445C401.71 203.401 401.67 203.365 401.621 203.341L398.608 201.864L401.52 200.015C401.55 199.996 401.575 199.972 401.595 199.944C401.614 199.917 401.626 199.887 401.632 199.855C401.637 199.824 401.635 199.791 401.626 199.761C401.617 199.73 401.601 199.7 401.579 199.675C401.557 199.649 401.529 199.628 401.497 199.611C401.465 199.595 401.429 199.584 401.392 199.58C401.355 199.575 401.318 199.577 401.282 199.584C401.246 199.592 401.212 199.606 401.182 199.625L397.921 201.696C397.884 201.72 397.853 201.751 397.833 201.788C397.813 201.824 397.804 201.865 397.807 201.905C397.81 201.945 397.824 201.984 397.849 202.018C397.874 202.053 397.908 202.081 397.949 202.101L401.338 203.762C401.402 203.794 401.478 203.803 401.549 203.787Z" fill="#6C63FF"/>
<path d="M406.387 205.187C406.415 205.181 406.441 205.171 406.465 205.159C406.497 205.142 406.525 205.12 406.547 205.095C406.569 205.069 406.585 205.04 406.594 205.009C406.602 204.978 406.604 204.945 406.598 204.914C406.593 204.882 406.58 204.852 406.56 204.825L401.927 198.311C401.888 198.256 401.825 198.217 401.751 198.202C401.678 198.187 401.601 198.197 401.537 198.23C401.472 198.264 401.426 198.318 401.408 198.38C401.391 198.443 401.403 198.509 401.442 198.564L406.075 205.078C406.106 205.122 406.154 205.157 406.21 205.176C406.266 205.196 406.328 205.199 406.387 205.187Z" fill="#6C63FF"/>
<path d="M145.913 126.709H120.808C119.783 126.709 118.953 127.418 118.953 128.294V130.392C118.953 131.267 119.783 131.977 120.808 131.977H145.913C146.937 131.977 147.767 131.267 147.767 130.392V128.294C147.767 127.418 146.937 126.709 145.913 126.709Z" fill="url(#paint1_linear_68_22)"/>
<path d="M160.547 137.246H106.175C105.151 137.246 104.32 137.956 104.32 138.832V140.929C104.32 141.805 105.151 142.515 106.175 142.515H160.547C161.571 142.515 162.402 141.805 162.402 140.929V138.832C162.402 137.956 161.571 137.246 160.547 137.246Z" fill="#E6E6E6"/>
<path d="M160.547 147.784H106.175C105.151 147.784 104.32 148.494 104.32 149.369V151.467C104.32 152.343 105.151 153.052 106.175 153.052H160.547C161.571 153.052 162.402 152.343 162.402 151.467V149.369C162.402 148.494 161.571 147.784 160.547 147.784Z" fill="#E6E6E6"/>
<path d="M165.156 183.07L165.279 183.402L165.286 183.413L168.993 193.051L173.257 204.156L181.281 225.027L181.358 228.269V228.28L181.954 254.359L180.302 257.895L182.162 263.692C182.162 263.692 181.306 254.93 176.718 259.962C174.119 262.821 171.08 265.747 168.585 268.49C172.22 269.748 175.914 270.886 179.667 271.904C180.477 272.126 181.293 272.336 182.11 272.547C182.285 272.591 182.46 272.636 182.635 272.68C195.074 275.825 207.933 277.593 220.898 277.939C221.572 277.956 222.233 277.967 222.874 277.978C223.101 277.983 223.322 277.989 223.542 277.989C224.268 277.995 224.987 278 225.713 278C227.178 278 228.636 277.982 230.087 277.945C240.832 277.686 251.514 276.45 261.954 274.259C261.882 270.574 261.688 266.268 261.409 261.668C261.28 259.413 258.37 256.969 258.195 254.608C258.072 252.835 260.683 251.167 260.547 249.366C259.666 238.276 258.564 242.533 257.748 234.681C257.663 233.91 257.586 233.173 257.514 232.469C256.989 227.426 256.626 224.273 256.626 224.273L260.113 205.481L265.589 175.976L265.168 175.383L264.695 175.184L235.81 162.959L234.242 159.523C233.785 158.533 232.992 157.683 231.965 157.081C230.938 156.48 229.725 156.155 228.48 156.148L209.453 156.081C208.465 156.078 207.491 156.275 206.611 156.658C205.73 157.04 204.969 157.597 204.391 158.281L199.239 164.383L165.156 183.07Z" fill="#3F3D56"/>
<path d="M185.667 220.383L181.357 228.269L178.415 233.655L173.353 256.316L170.819 258.616L168.648 250.474L145.925 254.788C145.18 251.247 145.726 254.908 145.266 251.023C145.395 250.912 145.531 250.802 145.667 250.691C146.03 250.403 146.335 250.131 146.328 249.871C146.069 236.471 146.847 213.666 153.341 199.85C154.358 197.595 155.699 195.456 157.333 193.483C157.463 193.333 157.586 193.184 157.709 193.034C160.703 189.448 162.595 185.918 165.278 183.408V183.402C165.295 183.391 165.31 183.378 165.324 183.364C165.333 183.359 165.342 183.354 165.35 183.347L183.781 174.99L184.572 193.987L185.136 207.642L185.667 220.383Z" fill="#3F3D56"/>
<path d="M252.127 222.623L257.51 232.472L259.389 235.902L264.449 258.561L266.975 260.855L269.151 252.715L270.174 252.536L288.614 249.27L293.988 263.866C295.2 262.14 295.677 260.11 295.339 258.118C295.002 256.126 293.87 254.294 292.136 252.933C291.768 252.649 291.463 252.373 291.471 252.111C291.777 236.351 290.65 207.572 280.469 195.727C277.235 191.968 275.295 188.224 272.472 185.609C272.463 185.601 272.463 185.594 272.455 185.594L265.585 175.976L265.166 175.385L264.694 175.184L252.127 222.623Z" fill="#3F3D56"/>
<path d="M219.515 151.451C233.496 151.451 244.829 141.76 244.829 129.805C244.829 117.85 233.496 108.159 219.515 108.159C205.535 108.159 194.201 117.85 194.201 129.805C194.201 141.76 205.535 151.451 219.515 151.451Z" fill="#FFB6B6"/>
<path d="M253.73 114.685C253.534 114.506 253.297 114.362 253.035 114.263C252.772 114.163 252.489 114.11 252.202 114.107L252.583 113.203C252.707 112.919 252.74 112.611 252.68 112.312C252.619 112.012 252.466 111.732 252.238 111.5C252.009 111.267 251.712 111.091 251.377 110.989C251.042 110.888 250.682 110.864 250.333 110.92L248.947 111.148L249.077 110.357C249.127 110.062 249.087 109.761 248.96 109.483C248.832 109.206 248.623 108.961 248.352 108.774C248.081 108.587 247.757 108.463 247.413 108.415C247.069 108.367 246.717 108.397 246.39 108.501C246.093 108.601 245.773 108.643 245.455 108.623C245.136 108.604 244.827 108.524 244.549 108.389C244.271 108.258 244.029 108.077 243.84 107.858C243.652 107.639 243.522 107.388 243.459 107.121L242.976 105.129L242.925 105.022C240.573 101.67 236.051 99.2318 230.517 98.3379C225.592 97.5363 220.541 97.9444 215.672 98.3282C213.741 98.4837 211.559 98.6585 209.741 99.6107C208.196 100.427 206.889 102.059 207.156 103.706C202.356 102.448 197.209 104.959 194.658 108.127C191.636 111.896 191.141 116.618 191.062 120.31C190.846 129.045 192.954 136.191 197.311 141.554C197.629 141.943 197.709 142.754 198.339 143.026L198.209 142.846C198.913 143.148 199.629 143.633 199.362 144.153C198.595 145.649 203.691 148.958 207.281 150.051C213.832 152.047 222.541 151.877 228.665 151.158L228.881 149.92C231.091 149.662 232.648 149.172 233.085 148.404C233.858 147.84 234.517 147.335 235.09 146.869L235.096 146.864C235.107 146.854 235.13 146.84 235.142 146.83C237.908 144.561 238.55 143.269 238.84 141.302C239.118 139.373 238.624 137.415 238.118 135.652C248.765 137.061 233.926 125.955 243.845 123.808C243.959 123.778 244.074 123.754 244.192 123.735C244.481 123.677 244.771 123.619 245.049 123.551C246.391 123.239 247.676 122.77 248.867 122.156C251.639 120.714 252.554 118.8 253.986 116.643C254.192 116.336 254.279 115.98 254.233 115.628C254.187 115.276 254.011 114.946 253.73 114.685Z" fill="#2F2E41"/>
<path d="M309.046 224.164C309.041 225.014 309.029 226.204 308.984 227.676C308.978 227.88 308.973 228.089 308.967 228.303C308.893 231.009 308.819 233.277 308.7 235.799C308.694 235.973 308.688 236.143 308.677 236.318C308.518 239.835 308.268 243.931 307.836 250.416C307.035 262.396 305.638 252.063 304.235 256.265C304.166 256.474 304.092 256.722 304.024 257.013C303.812 258.071 303.453 259.103 302.956 260.088C302.212 260.467 301.445 260.832 300.69 261.196C298.536 262.221 296.349 263.207 294.145 264.145C292.906 264.669 291.662 265.184 290.412 265.68C290.214 265.757 290.02 265.835 289.827 265.908C283.427 268.44 276.831 270.592 270.085 272.35C268.767 272.69 267.455 273.02 266.126 273.326C264.74 273.657 263.353 273.967 261.95 274.259C251.511 276.45 240.829 277.686 230.085 277.946C228.636 277.985 227.176 278 225.71 278C224.983 278 224.267 277.995 223.54 277.99C223.319 277.99 223.097 277.985 222.876 277.98C222.234 277.966 221.569 277.956 220.899 277.941C207.934 277.595 195.074 275.827 182.636 272.68L182.108 272.549C181.29 272.335 180.478 272.126 179.665 271.903C175.916 270.887 172.221 269.751 168.581 268.493C165.803 267.536 163.057 266.509 160.344 265.413C160.319 265.407 160.296 265.397 160.276 265.383C159.707 265.16 159.134 264.927 158.566 264.689C158.492 264.655 158.412 264.621 158.333 264.587C156.214 263.703 154.117 262.776 152.044 261.808C150.3 258.383 147.845 257.727 146.323 254.715C145.88 253.821 145.559 252.885 145.368 251.927C145.368 251.917 145.363 251.907 145.363 251.893C145.522 253.7 144.687 248.687 145.357 251.873C145.351 251.815 145.346 251.752 145.34 251.679C145.323 251.504 145.3 251.291 145.266 251.023C143.318 234.754 143.443 216.148 142.596 200.816C142.539 199.825 142.481 198.876 142.42 197.97C142.403 197.668 142.38 197.372 142.357 197.081C142.397 196.993 142.443 196.901 142.494 196.813C142.505 196.788 142.518 196.764 142.534 196.741C142.55 196.71 142.569 196.681 142.59 196.653C142.602 196.639 142.619 196.619 142.63 196.605C142.638 196.588 142.648 196.572 142.659 196.556C142.71 196.488 142.766 196.415 142.829 196.347C142.857 196.318 142.88 196.294 142.908 196.269C142.928 196.245 142.951 196.222 142.977 196.201C142.994 196.178 143.015 196.157 143.039 196.138C143.062 196.119 143.085 196.094 143.113 196.07C143.125 196.055 143.141 196.042 143.158 196.031C143.203 195.987 143.253 195.947 143.306 195.91C143.509 195.75 143.725 195.604 143.954 195.473C144.033 195.429 144.119 195.385 144.198 195.337C144.771 195.044 145.373 194.797 145.999 194.598C146.215 194.53 146.431 194.467 146.664 194.399C146.749 194.38 146.828 194.355 146.914 194.331C147.039 194.297 147.164 194.263 147.294 194.239C147.942 194.074 148.641 193.933 149.396 193.802C149.487 193.787 149.584 193.772 149.68 193.753C149.817 193.729 149.959 193.709 150.101 193.69C150.294 193.661 150.493 193.632 150.692 193.602C152.379 193.374 154.293 193.204 156.407 193.092C156.606 193.083 156.804 193.073 157.003 193.063C157.236 193.053 157.469 193.044 157.708 193.034C157.907 193.024 158.111 193.019 158.316 193.015C158.514 193.005 158.719 193 158.929 192.995C159.503 192.981 160.094 192.966 160.696 192.956C162.412 192.927 164.218 192.937 166.116 192.971C166.996 192.99 167.894 193.01 168.814 193.044C168.877 193.044 168.934 193.049 168.99 193.049C169.791 193.073 170.598 193.102 171.428 193.141C172.007 193.165 172.592 193.189 173.177 193.219C173.728 193.248 174.285 193.277 174.848 193.311C175.285 193.33 175.722 193.359 176.166 193.384C176.541 193.408 176.916 193.432 177.29 193.452L177.802 193.481C178.08 193.5 178.359 193.515 178.643 193.539C179.267 193.583 179.892 193.627 180.529 193.67C181.159 193.719 181.801 193.768 182.443 193.816C183.085 193.865 183.733 193.918 184.38 193.972C184.449 193.976 184.511 193.981 184.574 193.986C185.164 194.04 185.755 194.088 186.352 194.142C186.488 194.151 186.63 194.161 186.767 194.176C187.335 194.224 187.915 194.282 188.489 194.334C188.665 194.35 188.84 194.366 189.017 194.382C189.467 194.424 189.91 194.46 190.363 194.506C190.959 194.564 191.567 194.618 192.158 194.686C192.618 194.729 193.078 194.773 193.538 194.822C194.26 194.895 194.993 194.972 195.726 195.055C196.004 195.084 196.282 195.113 196.561 195.147C198.651 195.371 200.765 195.618 202.912 195.876C206.167 196.269 209.474 196.697 212.803 197.158C216.138 197.62 219.492 198.107 222.864 198.621C223.716 198.752 224.568 198.883 225.426 199.019C225.813 199.082 226.199 199.145 226.585 199.208C227.244 199.31 227.903 199.417 228.562 199.524C229.221 199.631 229.88 199.738 230.539 199.85C231.323 199.981 232.113 200.112 232.897 200.243C238.061 201.118 243.197 202.05 248.208 203.027C249.031 203.187 249.855 203.352 250.673 203.513C252.309 203.838 253.93 204.168 255.536 204.504C255.979 204.591 256.417 204.683 256.854 204.776C257.945 205.009 259.036 205.242 260.109 205.48L260.297 205.524C261.087 205.689 261.859 205.859 262.632 206.034C264.455 206.442 266.249 206.855 268.012 207.273C269.182 207.55 270.339 207.83 271.483 208.113C273.193 208.536 274.869 208.963 276.499 209.396C276.903 209.502 277.306 209.609 277.704 209.711C278.897 210.027 280.073 210.348 281.215 210.668C282.124 210.921 283.01 211.178 283.885 211.436C284.76 211.693 285.618 211.951 286.458 212.208C286.998 212.373 287.532 212.548 288.066 212.714C288.833 212.956 289.589 213.199 290.327 213.442C290.554 213.515 290.776 213.593 290.998 213.666C291.14 213.719 291.276 213.763 291.412 213.811C291.679 213.904 291.952 213.991 292.213 214.083C292.48 214.171 292.742 214.263 293.003 214.36C293.259 214.448 293.52 214.54 293.77 214.632C294.026 214.72 294.276 214.812 294.525 214.909C294.736 214.982 294.94 215.06 295.139 215.138C295.542 215.288 295.946 215.439 296.338 215.594C296.531 215.672 296.724 215.745 296.917 215.823L297.36 215.997C297.423 216.027 297.485 216.051 297.548 216.075C297.69 216.134 297.838 216.197 297.98 216.255C298.309 216.386 298.633 216.527 298.951 216.658C299.377 216.843 299.792 217.027 300.19 217.207C300.593 217.392 300.985 217.576 301.36 217.756C301.422 217.785 301.479 217.814 301.542 217.844C301.627 217.882 301.712 217.926 301.797 217.965C302.087 218.106 302.365 218.252 302.644 218.392C303.189 218.679 303.706 218.961 304.189 219.243C304.297 219.306 304.399 219.369 304.507 219.427C304.865 219.646 305.206 219.86 305.524 220.078C305.524 220.083 305.524 220.083 305.53 220.083C305.638 220.151 305.74 220.224 305.842 220.292C305.927 220.36 306.018 220.418 306.104 220.486C306.399 220.705 306.672 220.914 306.922 221.127C307.005 221.193 307.085 221.263 307.16 221.336C307.193 221.36 307.224 221.386 307.251 221.414C307.365 221.511 307.467 221.608 307.564 221.706C307.579 221.719 307.592 221.734 307.603 221.749C307.74 221.885 307.865 222.021 307.984 222.157C308.041 222.225 308.103 222.293 308.154 222.361C308.223 222.444 308.291 222.531 308.348 222.614C308.399 222.682 308.444 222.755 308.49 222.823C308.61 222.998 308.713 223.182 308.796 223.372C308.86 223.501 308.912 223.634 308.95 223.77C308.993 223.899 309.025 224.031 309.046 224.164Z" fill="#2F2E41"/>
<path opacity="0.2" d="M309.046 224.164C309.041 225.014 309.029 226.204 308.984 227.676C308.978 227.88 308.967 228.089 308.961 228.303C308.904 230.367 308.819 232.918 308.7 235.798C308.694 235.973 308.688 236.143 308.677 236.318C308.518 239.835 308.268 243.931 307.836 250.416C307.035 262.396 305.638 252.063 304.234 256.265C300.337 254.215 296.065 252.068 291.497 249.862C290.674 249.464 289.842 249.064 289.003 248.662C279.868 244.305 269.665 239.738 259.013 235.216C258.592 235.036 258.166 234.856 257.746 234.681C233.346 224.368 206.713 214.336 185.136 207.642C180.972 206.35 176.995 205.184 173.257 204.159C165.383 202.007 158.577 200.501 153.339 199.85C147.885 199.17 144.118 199.412 142.596 200.816C142.539 199.825 142.48 198.876 142.42 197.97C142.397 197.668 142.374 197.372 142.352 197.081C142.387 197.001 142.432 196.924 142.476 196.847C142.483 196.836 142.487 196.825 142.494 196.813C142.504 196.788 142.518 196.764 142.533 196.741C142.55 196.71 142.569 196.681 142.59 196.653C142.609 196.619 142.632 196.586 142.658 196.556C142.709 196.488 142.766 196.415 142.829 196.347C142.875 196.296 142.924 196.247 142.976 196.201C142.994 196.178 143.015 196.157 143.039 196.138C143.062 196.119 143.084 196.094 143.113 196.07C143.125 196.055 143.14 196.042 143.158 196.031C143.203 195.987 143.253 195.947 143.306 195.91C143.509 195.75 143.725 195.604 143.954 195.473C144.033 195.429 144.118 195.385 144.198 195.337C144.77 195.044 145.373 194.797 145.999 194.598C146.215 194.53 146.431 194.467 146.664 194.399C146.749 194.38 146.828 194.355 146.913 194.331C147.038 194.297 147.163 194.263 147.294 194.239C147.942 194.074 148.641 193.933 149.396 193.801C149.623 193.763 149.862 193.724 150.101 193.69C150.294 193.661 150.493 193.631 150.691 193.602C152.379 193.374 154.293 193.204 156.407 193.092C156.605 193.083 156.804 193.073 157.003 193.063C157.236 193.053 157.469 193.044 157.708 193.034C157.906 193.024 158.111 193.019 158.315 193.015C158.514 193.005 158.719 193 158.929 192.995C159.503 192.981 160.094 192.966 160.696 192.956C162.412 192.932 164.218 192.942 166.116 192.976C166.996 192.99 167.894 193.015 168.814 193.049C168.871 193.049 168.933 193.053 168.99 193.053C169.791 193.073 170.604 193.107 171.427 193.141C172.007 193.165 172.592 193.189 173.177 193.219C173.728 193.248 174.285 193.277 174.847 193.311C175.285 193.33 175.722 193.359 176.165 193.384C176.54 193.408 176.915 193.432 177.29 193.452C177.739 193.481 178.188 193.51 178.642 193.539C179.267 193.583 179.892 193.627 180.529 193.67C181.159 193.719 181.801 193.767 182.443 193.816C183.085 193.865 183.733 193.918 184.38 193.972C184.448 193.976 184.511 193.981 184.573 193.986C185.164 194.04 185.755 194.088 186.352 194.142C189.658 194.428 193.061 194.763 196.561 195.147C198.651 195.375 200.768 195.62 202.912 195.881C206.167 196.274 209.474 196.702 212.803 197.158C216.138 197.62 219.491 198.107 222.864 198.621C223.716 198.752 224.568 198.883 225.426 199.019C226.472 199.184 227.517 199.352 228.562 199.524C229.221 199.631 229.88 199.738 230.539 199.85C231.323 199.981 232.113 200.112 232.897 200.243C238.061 201.118 243.197 202.05 248.207 203.027C249.031 203.187 249.855 203.352 250.673 203.513C252.309 203.838 253.93 204.168 255.536 204.504C255.979 204.596 256.417 204.688 256.854 204.78C257.95 205.014 259.036 205.247 260.109 205.48V205.485C260.172 205.495 260.234 205.509 260.297 205.524C261.081 205.694 261.859 205.864 262.632 206.039C264.455 206.447 266.249 206.858 268.012 207.273C269.182 207.554 270.341 207.831 271.483 208.113C273.193 208.541 274.869 208.968 276.499 209.396C276.903 209.502 277.306 209.609 277.704 209.711C278.897 210.032 280.067 210.351 281.215 210.668C282.124 210.921 283.01 211.178 283.885 211.436C284.76 211.693 285.617 211.951 286.458 212.208C287.004 212.373 287.538 212.543 288.066 212.709C288.839 212.952 289.589 213.194 290.327 213.442C290.554 213.515 290.776 213.593 290.997 213.666C291.412 213.802 291.815 213.943 292.213 214.083C292.48 214.171 292.742 214.263 293.003 214.36C293.258 214.448 293.52 214.54 293.77 214.632C294.025 214.72 294.275 214.812 294.525 214.909C294.736 214.982 294.94 215.06 295.139 215.138C295.542 215.288 295.946 215.439 296.338 215.594C296.531 215.672 296.724 215.745 296.917 215.823L297.36 215.997C297.423 216.027 297.485 216.051 297.548 216.075C298.031 216.27 298.496 216.464 298.951 216.658C299.377 216.843 299.792 217.027 300.189 217.207C300.661 217.421 301.11 217.63 301.542 217.843C301.627 217.882 301.712 217.926 301.797 217.965C302.087 218.106 302.365 218.252 302.644 218.392C303.189 218.679 303.706 218.961 304.189 219.243C304.666 219.524 305.109 219.801 305.524 220.078C305.524 220.083 305.524 220.083 305.53 220.083C305.729 220.219 305.922 220.355 306.103 220.486C306.399 220.705 306.672 220.914 306.922 221.127C307.005 221.193 307.085 221.263 307.16 221.336C307.193 221.36 307.224 221.386 307.251 221.414C307.37 221.526 307.49 221.638 307.603 221.749C307.74 221.885 307.865 222.021 307.984 222.157C308.041 222.225 308.103 222.293 308.154 222.361C308.223 222.444 308.291 222.531 308.348 222.614C308.399 222.682 308.444 222.755 308.49 222.823C308.61 222.998 308.713 223.182 308.796 223.372C308.858 223.501 308.91 223.634 308.95 223.77C308.993 223.899 309.025 224.031 309.046 224.164Z" fill="black"/>
</g>
<defs>
<linearGradient id="paint0_linear_68_22" x1="319.875" y1="165.39" x2="319.875" y2="208.134" gradientUnits="userSpaceOnUse">
<stop stop-color="#5200FF"/>
<stop offset="0.497917" stop-color="#6129FF"/>
<stop offset="1" stop-color="#0075FF"/>
</linearGradient>
<linearGradient id="paint1_linear_68_22" x1="133.36" y1="126.709" x2="133.36" y2="131.977" gradientUnits="userSpaceOnUse">
<stop stop-color="#5200FF"/>
<stop offset="0.497917" stop-color="#6129FF"/>
<stop offset="1" stop-color="#0075FF"/>
</linearGradient>
<clipPath id="clip0_68_22">
<rect width="447" height="278" fill="white"/>
</clipPath>
</defs>
</svg>
