<svg width="64" height="64" viewBox="0 0 64 64" fill="none" xmlns="http://www.w3.org/2000/svg">
<rect width="64" height="64" fill="#0B32FF"/>
<path fill-rule="evenodd" clip-rule="evenodd" d="M28.3635 10.1818V17.4546H34.1817V10.1818H37.0908V17.4546H42.909V37.8182H32.6893L32.6797 37.948C32.5088 40.1707 32.6395 41.8024 33.0298 42.8054C33.6616 44.4287 35.0192 44.7223 38.257 44.0989L39.1228 43.9216L40.7483 43.5765C42.8044 43.1578 43.7203 43.082 44.8422 43.287C47.8096 43.8294 49.5879 45.476 52.0184 49.1998L52.8145 50.452L53.8742 52.1443L51.4088 53.6885L50.1071 51.61L49.6089 50.8308C47.5916 47.7355 46.2699 46.5053 44.3192 46.1487C43.6682 46.0297 42.9251 46.1023 41.2247 46.4491L39.2072 46.876C34.4487 47.8488 31.6809 47.3604 30.3188 43.8605C29.7497 42.3981 29.581 40.397 29.7719 37.82L19.6362 37.8182V17.4546H25.4544V10.1818H28.3635Z" fill="white"/>
</svg>
