<svg width="65" height="65" viewBox="0 0 65 65" fill="none" xmlns="http://www.w3.org/2000/svg">
<rect x="0.5" y="0.1875" width="64" height="64" fill="#0B32FF"/>
<g clip-path="url(#clip0_50_130)">
<path fill-rule="evenodd" clip-rule="evenodd" d="M48.5 48.1875H42.1V36.9891C42.1 33.9171 40.7448 32.2031 38.3144 32.2031C35.6696 32.2031 34.1 33.9891 34.1 36.9891V48.1875H27.7V27.3875H34.1V29.7266C34.1 29.7266 36.108 26.2031 40.6328 26.2031C45.1592 26.2031 48.5 28.9653 48.5 34.6805V48.1875ZM20.4072 24.0609C18.2488 24.0609 16.5 22.2978 16.5 20.1234C16.5 17.9506 18.2488 16.1875 20.4072 16.1875C22.564 16.1875 24.3128 17.9506 24.3128 20.1234C24.3144 22.2978 22.564 24.0609 20.4072 24.0609ZM16.5 48.1875H24.5V27.3875H16.5V48.1875Z" fill="white"/>
</g>
<defs>
<clipPath id="clip0_50_130">
<rect width="32" height="32" fill="white" transform="translate(16.5 16.1875)"/>
</clipPath>
</defs>
</svg>
