<svg width="16" height="17" viewBox="0 0 16 17" fill="none" xmlns="http://www.w3.org/2000/svg">
<g clip-path="url(#clip0_104_83)">
<path fill-rule="evenodd" clip-rule="evenodd" d="M16 16.875H12.8V11.2758C12.8 9.73978 12.1224 8.88281 10.9072 8.88281C9.5848 8.88281 8.8 9.77578 8.8 11.2758V16.875H5.6V6.475H8.8V7.64453C8.8 7.64453 9.80399 5.88281 12.0664 5.88281C14.3296 5.88281 16 7.26388 16 10.1215V16.875ZM1.9536 4.81172C0.874401 4.81172 0 3.93017 0 2.84297C0 1.75657 0.874401 0.875 1.9536 0.875C3.032 0.875 3.9064 1.75657 3.9064 2.84297C3.9072 3.93017 3.032 4.81172 1.9536 4.81172ZM0 16.875H4V6.475H0V16.875Z" fill="#0B32FF"/>
</g>
<defs>
<clipPath id="clip0_104_83">
<rect width="16" height="16" fill="white" transform="translate(0 0.875)"/>
</clipPath>
</defs>
</svg>
