<svg width="151" height="29" viewBox="0 0 151 29" fill="none" xmlns="http://www.w3.org/2000/svg">
<path d="M1.44886 23V9.90909H4.90909V12.2188H5.0625C5.33523 11.4517 5.78977 10.8466 6.42614 10.4034C7.0625 9.96023 7.82386 9.73864 8.71023 9.73864C9.60795 9.73864 10.3722 9.96307 11.0028 10.4119C11.6335 10.8551 12.054 11.4574 12.2642 12.2188H12.4006C12.6676 11.4688 13.1506 10.8693 13.8494 10.4205C14.554 9.96591 15.3864 9.73864 16.3466 9.73864C17.5682 9.73864 18.5597 10.1278 19.321 10.9062C20.0881 11.679 20.4716 12.7756 20.4716 14.196V23H16.8494V14.9119C16.8494 14.1847 16.6563 13.6392 16.2699 13.2756C15.8835 12.9119 15.4006 12.7301 14.821 12.7301C14.1619 12.7301 13.6477 12.9403 13.2784 13.3608C12.9091 13.7756 12.7244 14.3239 12.7244 15.0057V23H9.20455V14.8352C9.20455 14.1932 9.01989 13.6818 8.65057 13.3011C8.28693 12.9205 7.80682 12.7301 7.21023 12.7301C6.80682 12.7301 6.44318 12.8324 6.11932 13.0369C5.80114 13.2358 5.5483 13.517 5.3608 13.8807C5.1733 14.2386 5.07955 14.6591 5.07955 15.142V23H1.44886ZM23.3395 23V9.90909H26.9702V23H23.3395ZM25.1634 8.22159C24.6236 8.22159 24.1605 8.04261 23.7741 7.68466C23.3935 7.32102 23.2031 6.88636 23.2031 6.38068C23.2031 5.88068 23.3935 5.4517 23.7741 5.09375C24.1605 4.73011 24.6236 4.54829 25.1634 4.54829C25.7031 4.54829 26.1634 4.73011 26.544 5.09375C26.9304 5.4517 27.1236 5.88068 27.1236 6.38068C27.1236 6.88636 26.9304 7.32102 26.544 7.68466C26.1634 8.04261 25.7031 8.22159 25.1634 8.22159ZM35.7933 23.2557C34.4524 23.2557 33.299 22.9716 32.3331 22.4034C31.3729 21.8295 30.6342 21.0341 30.1172 20.017C29.6058 19 29.3501 17.8295 29.3501 16.5057C29.3501 15.1648 29.6087 13.9886 30.1257 12.9773C30.6484 11.9602 31.3899 11.1676 32.3501 10.5994C33.3104 10.0256 34.4524 9.73864 35.7763 9.73864C36.9183 9.73864 37.9183 9.94602 38.7763 10.3608C39.6342 10.7756 40.3132 11.358 40.8132 12.108C41.3132 12.858 41.5888 13.7386 41.6399 14.75H38.2138C38.1172 14.0966 37.8615 13.571 37.4467 13.1733C37.0376 12.7699 36.5007 12.5682 35.8359 12.5682C35.2734 12.5682 34.782 12.7216 34.3615 13.0284C33.9467 13.3295 33.6229 13.7699 33.3899 14.3494C33.157 14.929 33.0405 15.6307 33.0405 16.4545C33.0405 17.2898 33.1541 18 33.3814 18.5852C33.6143 19.1705 33.9411 19.6165 34.3615 19.9233C34.782 20.2301 35.2734 20.3835 35.8359 20.3835C36.2507 20.3835 36.6229 20.2983 36.9524 20.1278C37.2876 19.9574 37.5632 19.7102 37.7791 19.3864C38.0007 19.0568 38.1456 18.6619 38.2138 18.2017H41.6399C41.5831 19.2017 41.3104 20.0824 40.8217 20.8438C40.3388 21.5994 39.6712 22.1903 38.8189 22.6165C37.9666 23.0426 36.9581 23.2557 35.7933 23.2557ZM47.5952 15.4318V23H43.9645V5.54545H47.4929V12.2188H47.6463C47.9418 11.446 48.419 10.8409 49.0781 10.4034C49.7372 9.96023 50.5639 9.73864 51.5582 9.73864C52.4673 9.73864 53.2599 9.9375 53.9361 10.3352C54.6179 10.7273 55.1463 11.2926 55.5213 12.0312C55.902 12.7642 56.0895 13.642 56.0838 14.6648V23H52.4531V15.3125C52.4588 14.5057 52.2543 13.8778 51.8395 13.429C51.4304 12.9801 50.8565 12.7557 50.1179 12.7557C49.6236 12.7557 49.1861 12.8608 48.8054 13.071C48.4304 13.2812 48.1349 13.5881 47.919 13.9915C47.7088 14.3892 47.6009 14.8693 47.5952 15.4318ZM62.674 23.2472C61.8388 23.2472 61.0945 23.1023 60.4411 22.8125C59.7876 22.517 59.2706 22.0824 58.8899 21.5085C58.5149 20.929 58.3274 20.2074 58.3274 19.3438C58.3274 18.6165 58.4609 18.0057 58.728 17.5114C58.995 17.017 59.3587 16.6193 59.8189 16.3182C60.2791 16.017 60.8018 15.7898 61.3871 15.6364C61.978 15.483 62.5973 15.375 63.245 15.3125C64.0064 15.233 64.62 15.1591 65.0859 15.0909C65.5518 15.017 65.8899 14.9091 66.1001 14.767C66.3104 14.625 66.4155 14.4148 66.4155 14.1364V14.0852C66.4155 13.5455 66.245 13.1278 65.9041 12.8324C65.5689 12.5369 65.0916 12.3892 64.4723 12.3892C63.8189 12.3892 63.299 12.5341 62.9126 12.8239C62.5263 13.108 62.2706 13.4659 62.1456 13.8977L58.7876 13.625C58.9581 12.8295 59.2933 12.142 59.7933 11.5625C60.2933 10.9773 60.9382 10.5284 61.728 10.2159C62.5234 9.89773 63.4439 9.73864 64.4893 9.73864C65.2166 9.73864 65.9126 9.82386 66.5774 9.99432C67.2479 10.1648 67.8416 10.429 68.3587 10.7869C68.8814 11.1449 69.2933 11.6051 69.5945 12.1676C69.8956 12.7244 70.0462 13.392 70.0462 14.1705V23H66.603V21.1847H66.5007C66.2905 21.5938 66.0092 21.9545 65.657 22.267C65.3047 22.5739 64.8814 22.8153 64.3871 22.9915C63.8928 23.1619 63.3217 23.2472 62.674 23.2472ZM63.7138 20.7415C64.2479 20.7415 64.7195 20.6364 65.1286 20.4261C65.5376 20.2102 65.8587 19.9205 66.0916 19.5568C66.3246 19.1932 66.4411 18.7812 66.4411 18.321V16.9318C66.3274 17.0057 66.1712 17.0739 65.9723 17.1364C65.7791 17.1932 65.5604 17.2472 65.3161 17.2983C65.0717 17.3437 64.8274 17.3864 64.5831 17.4261C64.3388 17.4602 64.1172 17.4915 63.9183 17.5199C63.4922 17.5824 63.12 17.6818 62.8018 17.8182C62.4837 17.9545 62.2365 18.1392 62.0604 18.3722C61.8842 18.5994 61.7962 18.8835 61.7962 19.2244C61.7962 19.7188 61.9751 20.0966 62.3331 20.358C62.6967 20.6136 63.157 20.7415 63.7138 20.7415ZM76.4936 5.54545V23H72.8629V5.54545H76.4936ZM85.2997 28.1818C84.1236 28.1818 83.1151 28.0199 82.2741 27.696C81.4389 27.3778 80.7741 26.9432 80.2798 26.392C79.7855 25.8409 79.4645 25.2216 79.3168 24.5341L82.6747 24.0824C82.777 24.3438 82.9389 24.5881 83.1605 24.8153C83.3821 25.0426 83.6747 25.2244 84.0384 25.3608C84.4077 25.5028 84.8565 25.5739 85.3849 25.5739C86.1747 25.5739 86.8253 25.3807 87.3366 24.9943C87.8537 24.6136 88.1122 23.9744 88.1122 23.0767V20.6818H87.9588C87.7997 21.0455 87.5611 21.3892 87.2429 21.7131C86.9247 22.0369 86.5156 22.3011 86.0156 22.5057C85.5156 22.7102 84.919 22.8125 84.2259 22.8125C83.2429 22.8125 82.348 22.5852 81.5412 22.1307C80.7401 21.6705 80.1009 20.9687 79.6236 20.0256C79.152 19.0767 78.9162 17.8778 78.9162 16.429C78.9162 14.946 79.1577 13.7074 79.6406 12.7131C80.1236 11.7187 80.7656 10.9744 81.5668 10.4801C82.3736 9.9858 83.2571 9.73864 84.2173 9.73864C84.9503 9.73864 85.5639 9.86364 86.0582 10.1136C86.5526 10.358 86.9503 10.6648 87.2514 11.0341C87.5582 11.3977 87.794 11.7557 87.9588 12.108H88.0952V9.90909H91.7003V23.1278C91.7003 24.2415 91.4276 25.1733 90.8821 25.9233C90.3366 26.6733 89.581 27.2358 88.6151 27.6108C87.6548 27.9915 86.5497 28.1818 85.2997 28.1818ZM85.3764 20.0852C85.9616 20.0852 86.456 19.9403 86.8594 19.6506C87.2685 19.3551 87.581 18.9347 87.7969 18.3892C88.0185 17.8381 88.1293 17.179 88.1293 16.4119C88.1293 15.6449 88.0213 14.9801 87.8054 14.4176C87.5895 13.8494 87.277 13.4091 86.8679 13.0966C86.4588 12.7841 85.9616 12.6278 85.3764 12.6278C84.7798 12.6278 84.277 12.7898 83.8679 13.1136C83.4588 13.4318 83.1491 13.875 82.9389 14.4432C82.7287 15.0114 82.6236 15.6676 82.6236 16.4119C82.6236 17.1676 82.7287 17.821 82.9389 18.3722C83.1548 18.9176 83.4645 19.3409 83.8679 19.642C84.277 19.9375 84.7798 20.0852 85.3764 20.0852ZM100.504 23.2557C99.1804 23.2557 98.0355 22.9744 97.0696 22.4119C96.1094 21.8437 95.3679 21.054 94.8452 20.0426C94.3224 19.0256 94.0611 17.8466 94.0611 16.5057C94.0611 15.1534 94.3224 13.9716 94.8452 12.9602C95.3679 11.9432 96.1094 11.1534 97.0696 10.5909C98.0355 10.0227 99.1804 9.73864 100.504 9.73864C101.828 9.73864 102.97 10.0227 103.93 10.5909C104.896 11.1534 105.641 11.9432 106.163 12.9602C106.686 13.9716 106.947 15.1534 106.947 16.5057C106.947 17.8466 106.686 19.0256 106.163 20.0426C105.641 21.054 104.896 21.8437 103.93 22.4119C102.97 22.9744 101.828 23.2557 100.504 23.2557ZM100.521 20.4432C101.124 20.4432 101.626 20.2727 102.03 19.9318C102.433 19.5852 102.737 19.1136 102.942 18.517C103.152 17.9205 103.257 17.2415 103.257 16.4801C103.257 15.7188 103.152 15.0398 102.942 14.4432C102.737 13.8466 102.433 13.375 102.03 13.0284C101.626 12.6818 101.124 12.5085 100.521 12.5085C99.9134 12.5085 99.402 12.6818 98.9872 13.0284C98.5781 13.375 98.2685 13.8466 98.0582 14.4432C97.8537 15.0398 97.7514 15.7188 97.7514 16.4801C97.7514 17.2415 97.8537 17.9205 98.0582 18.517C98.2685 19.1136 98.5781 19.5852 98.9872 19.9318C99.402 20.2727 99.9134 20.4432 100.521 20.4432ZM112.939 5.54545V23H109.308V5.54545H112.939ZM120.671 23.2131C119.677 23.2131 118.776 22.9574 117.969 22.446C117.168 21.929 116.532 21.1705 116.06 20.1705C115.594 19.1648 115.362 17.9318 115.362 16.4716C115.362 14.9716 115.603 13.7244 116.086 12.7301C116.569 11.7301 117.211 10.983 118.012 10.4886C118.819 9.98864 119.702 9.73864 120.663 9.73864C121.396 9.73864 122.006 9.86364 122.495 10.1136C122.989 10.358 123.387 10.6648 123.688 11.0341C123.995 11.3977 124.228 11.7557 124.387 12.108H124.498V5.54545H128.12V23H124.54V20.9034H124.387C124.217 21.267 123.975 21.6278 123.663 21.9858C123.356 22.3381 122.955 22.6307 122.461 22.8636C121.972 23.0966 121.376 23.2131 120.671 23.2131ZM121.822 20.3239C122.407 20.3239 122.901 20.1648 123.305 19.8466C123.714 19.5227 124.026 19.071 124.242 18.4915C124.464 17.9119 124.575 17.233 124.575 16.4545C124.575 15.6761 124.467 15 124.251 14.4261C124.035 13.8523 123.722 13.4091 123.313 13.0966C122.904 12.7841 122.407 12.6278 121.822 12.6278C121.225 12.6278 120.722 12.7898 120.313 13.1136C119.904 13.4375 119.594 13.8864 119.384 14.4602C119.174 15.0341 119.069 15.6989 119.069 16.4545C119.069 17.2159 119.174 17.8892 119.384 18.4744C119.6 19.054 119.91 19.5085 120.313 19.8381C120.722 20.1619 121.225 20.3239 121.822 20.3239ZM134.838 23.2472C134.003 23.2472 133.259 23.1023 132.605 22.8125C131.952 22.517 131.435 22.0824 131.054 21.5085C130.679 20.929 130.491 20.2074 130.491 19.3438C130.491 18.6165 130.625 18.0057 130.892 17.5114C131.159 17.017 131.523 16.6193 131.983 16.3182C132.443 16.017 132.966 15.7898 133.551 15.6364C134.142 15.483 134.761 15.375 135.409 15.3125C136.17 15.233 136.784 15.1591 137.25 15.0909C137.716 15.017 138.054 14.9091 138.264 14.767C138.474 14.625 138.58 14.4148 138.58 14.1364V14.0852C138.58 13.5455 138.409 13.1278 138.068 12.8324C137.733 12.5369 137.256 12.3892 136.636 12.3892C135.983 12.3892 135.463 12.5341 135.077 12.8239C134.69 13.108 134.435 13.4659 134.31 13.8977L130.952 13.625C131.122 12.8295 131.457 12.142 131.957 11.5625C132.457 10.9773 133.102 10.5284 133.892 10.2159C134.688 9.89773 135.608 9.73864 136.653 9.73864C137.381 9.73864 138.077 9.82386 138.741 9.99432C139.412 10.1648 140.006 10.429 140.523 10.7869C141.045 11.1449 141.457 11.6051 141.759 12.1676C142.06 12.7244 142.21 13.392 142.21 14.1705V23H138.767V21.1847H138.665C138.455 21.5938 138.173 21.9545 137.821 22.267C137.469 22.5739 137.045 22.8153 136.551 22.9915C136.057 23.1619 135.486 23.2472 134.838 23.2472ZM135.878 20.7415C136.412 20.7415 136.884 20.6364 137.293 20.4261C137.702 20.2102 138.023 19.9205 138.256 19.5568C138.489 19.1932 138.605 18.7812 138.605 18.321V16.9318C138.491 17.0057 138.335 17.0739 138.136 17.1364C137.943 17.1932 137.724 17.2472 137.48 17.2983C137.236 17.3437 136.991 17.3864 136.747 17.4261C136.503 17.4602 136.281 17.4915 136.082 17.5199C135.656 17.5824 135.284 17.6818 134.966 17.8182C134.648 17.9545 134.401 18.1392 134.224 18.3722C134.048 18.5994 133.96 18.8835 133.96 19.2244C133.96 19.7188 134.139 20.0966 134.497 20.358C134.861 20.6136 135.321 20.7415 135.878 20.7415Z" fill="#22264F"/>
<path d="M147.149 23.2216C146.587 23.2216 146.104 23.0227 145.7 22.625C145.303 22.2216 145.104 21.7386 145.104 21.1761C145.104 20.6193 145.303 20.142 145.7 19.7443C146.104 19.3466 146.587 19.1477 147.149 19.1477C147.695 19.1477 148.172 19.3466 148.581 19.7443C148.99 20.142 149.195 20.6193 149.195 21.1761C149.195 21.5511 149.098 21.8949 148.905 22.2074C148.717 22.5142 148.47 22.7614 148.163 22.9489C147.857 23.1307 147.518 23.2216 147.149 23.2216Z" fill="#0B32FF"/>
</svg>
