<svg width="64" height="65" viewBox="0 0 64 65" fill="none" xmlns="http://www.w3.org/2000/svg">
<path d="M22.5456 34.1595C17.5633 34.1585 12.9311 33.5001 9.051 32.3544C5.172 31.2036 2.03688 29.5901 0.04125 27.5399L0 27.4945V41.5815C0.001 42.6654 0.4935 43.7555 1.55788 44.8609C2.617 45.9583 4.2335 47.0133 6.27962 47.9054C8.66162 48.9479 11.6289 49.7619 14.9432 50.2666V41.5165H17.0532V50.5388C18.5542 50.6995 20.1111 50.7943 21.7132 50.819V45.7891H23.8232V50.8376H28.4821V41.5166H30.5921V50.8376H35.251V45.7891H37.361V50.8376H42.021V41.5166H44.131V50.8376H48.791V45.7891H50.901V50.8376H55.5599V41.5166H57.6699V50.8376H64V34.1595H22.5456Z" fill="#0B32FF"/>
<path d="M36.9717 32.0495H45.0902V27.4946L45.0489 27.5399C43.7189 28.9103 41.8798 30.0764 39.6554 31.0501C38.8199 31.4148 37.9122 31.7423 36.9717 32.0495Z" fill="#0B32FF"/>
<path d="M6.27962 29.1172C10.3719 30.9077 16.1538 32.0515 22.5456 32.0495C27.3396 32.0495 31.7884 31.4107 35.4417 30.331C39.0961 29.2585 41.9459 27.7222 43.5325 26.0727C44.5968 24.9674 45.0892 23.8772 45.0902 22.7934C45.0892 21.7085 44.5968 20.6195 43.5325 19.514C42.4734 18.4167 40.8569 17.3617 38.8107 16.4695C34.7185 14.6777 28.9366 13.5342 22.5457 13.5374C17.7519 13.5364 13.3021 14.1761 9.64875 15.2549C5.9945 16.3274 3.14462 17.8636 1.558 19.514C0.4935 20.6195 0.001 21.7085 0 22.7934C0.001 23.8772 0.4935 24.9674 1.55788 26.0727C2.617 27.17 4.2335 28.225 6.27962 29.1172ZM15.2349 22.0392C15.6954 21.552 16.6637 21.007 17.9486 20.634C19.2324 20.2547 20.8263 20.023 22.5456 20.024C24.837 20.021 26.9079 20.4382 28.3143 21.0562C29.0169 21.3612 29.5475 21.7177 29.8545 22.0392C30.1676 22.3679 30.245 22.6037 30.246 22.7934C30.245 22.9819 30.1676 23.2189 29.8545 23.5476C29.395 24.0339 28.4265 24.58 27.1418 24.9529C25.858 25.332 24.2651 25.5627 22.5456 25.5627C20.2534 25.5649 18.1824 25.1485 16.7761 24.5304C16.0735 24.2254 15.5429 23.869 15.2349 23.5475C14.9216 23.2187 14.8454 22.9817 14.8442 22.7932C14.8454 22.6037 14.9216 22.3679 15.2349 22.0392Z" fill="#0B32FF"/>
</svg>
