<svg width="64" height="64" viewBox="0 0 64 64" fill="none" xmlns="http://www.w3.org/2000/svg">
<rect width="64" height="64" fill="#001D45"/>
<g clip-path="url(#clip0_72_1742)">
<path d="M32 16C23.164 16 16 22.632 16 30.8147C16.0467 35.548 18.3653 39.7293 21.9173 42.3253L21.9587 42.3533V48L27.4093 45.0107C28.784 45.404 30.3627 45.6293 31.9947 45.6293H32C40.836 45.6293 48 38.996 48 30.816C48 22.636 40.836 16 32 16ZM33.588 35.9507L29.5147 31.6L21.564 35.9467L30.3093 26.6667L34.484 31.012L42.336 26.6667L33.588 35.9507Z" fill="white"/>
</g>
<defs>
<clipPath id="clip0_72_1742">
<rect width="32" height="32" fill="white" transform="translate(16 16)"/>
</clipPath>
</defs>
</svg>
