<svg width="65" height="65" viewBox="0 0 65 65" fill="none" xmlns="http://www.w3.org/2000/svg">
<rect x="0.5" y="0.1875" width="64" height="64" fill="#0B32FF"/>
<path d="M20.8936 17.8472L16.8632 27.2522C16.77 27.4702 16.7442 27.7111 16.789 27.9439C16.8339 28.1767 16.9474 28.3907 17.115 28.5584L36.1292 47.5727C36.297 47.7403 36.511 47.8538 36.7438 47.8986C36.9766 47.9435 37.2175 47.9177 37.4355 47.8244L46.8405 43.7941C47.0189 43.7177 47.1758 43.5988 47.2976 43.4477C47.4194 43.2967 47.5023 43.1181 47.5391 42.9275C47.5759 42.737 47.5655 42.5404 47.5087 42.3548C47.4519 42.1693 47.3505 42.0005 47.2134 41.8632L42.0596 36.7118C41.8832 36.5359 41.656 36.4199 41.4101 36.3803C41.1641 36.3407 40.912 36.3794 40.6892 36.4909L35.8585 38.9063L25.7837 28.8292L28.1967 23.9984C28.3083 23.7757 28.347 23.5236 28.3074 23.2776C28.2677 23.0317 28.1518 22.8045 27.9759 22.6281L22.8221 17.4743C22.6848 17.3377 22.5162 17.2368 22.3309 17.1803C22.1456 17.1238 21.9493 17.1135 21.7592 17.1503C21.569 17.187 21.3907 17.2698 21.2398 17.3912C21.089 17.5127 20.9701 17.6692 20.8936 17.8472Z" fill="white"/>
</svg>
