<svg width="64" height="65" viewBox="0 0 64 65" fill="none" xmlns="http://www.w3.org/2000/svg">
<g clip-path="url(#clip0_48_40)">
<path d="M0 0.1875V64.1875H64V0.1875H0ZM16 32.1875C16 29.8625 16.5 27.6625 17.3875 25.675L25.025 46.5875C19.675 44 16 38.5125 16 32.1875ZM32 48.1875C30.425 48.1875 28.9125 47.9625 27.475 47.5375L32.275 33.5875L37.1875 47.0625C37.2125 47.1375 37.2625 47.2125 37.3 47.275C35.65 47.8625 33.8625 48.1875 32 48.1875ZM34.2125 24.6875C35.175 24.6375 36.0375 24.5375 36.0375 24.5375C36.9 24.4375 36.8 23.1625 35.9375 23.2125C35.9375 23.2125 33.3375 23.4125 31.675 23.4125C30.1 23.4125 27.4625 23.2125 27.4625 23.2125C26.6 23.1625 26.5 24.475 27.3625 24.5375C27.3625 24.5375 28.175 24.6375 29.0375 24.6875L31.5375 31.5125L28.0375 42.0125L22.2125 24.6875C23.175 24.6375 24.0375 24.5375 24.0375 24.5375C24.9 24.4375 24.8 23.1625 23.9375 23.2125C23.9375 23.2125 21.35 23.4125 19.675 23.4125C19.375 23.4125 19.025 23.4 18.65 23.3875C21.5125 19.05 26.425 16.175 32.025 16.175C36.1875 16.175 39.9875 17.775 42.825 20.375C42.75 20.375 42.6875 20.3625 42.625 20.3625C41.05 20.3625 39.9375 21.7375 39.9375 23.2C39.9375 24.525 40.7 25.6375 41.5125 26.95C42.125 28.0125 42.8375 29.3875 42.8375 31.3625C42.8375 32.7375 42.425 34.45 41.625 36.5375L40.025 41.8625L34.2125 24.6875ZM40.05 46.0125L44.9375 31.8875C45.85 29.6 46.15 27.775 46.15 26.1625C46.15 25.575 46.1125 25.025 46.0375 24.5125C47.2875 26.7875 48 29.4125 48 32.1875C48 38.0875 44.8 43.2375 40.05 46.0125Z" fill="#0B32FF"/>
</g>
<defs>
<clipPath id="clip0_48_40">
<rect width="64" height="64" fill="white" transform="translate(0 0.1875)"/>
</clipPath>
</defs>
</svg>
